<svg width="375" height="109" viewBox="0 0 375 109" fill="none" xmlns="http://www.w3.org/2000/svg">
<path d="M278.141 62.4654L311.589 60.1352L307.82 11.5898L278.141 62.4654Z" fill="#F8DBE1"/>
<path d="M239.039 27.9011L278.141 62.4654L307.82 11.5898L239.039 27.9011Z" fill="#F4F6DF"/>
<path d="M65.2012 37.2219L173.084 67.9025L155.653 25.1826L65.2012 37.2219Z" fill="#FDE6DD"/>
<path d="M155.653 25.1826L173.084 67.9025L239.039 27.9012L155.653 25.1826Z" fill="#EEF7F2"/>
<path d="M101.005 -19.4785L65.2012 37.2225L155.653 25.1832L101.005 -19.4785Z" fill="#FEFBF4"/>
<path d="M247.048 67.9027L278.141 62.4657L239.039 27.9014L247.048 67.9027Z" fill="#DCE4E7"/>
<path d="M24.6865 21.2996L65.2016 37.2225L101.006 -19.4785L24.6865 21.2996Z" fill="#FDF1E0"/>
<path d="M173.084 67.9027H247.048L239.039 27.9014L173.084 67.9027Z" fill="#DEEDF0"/>
<path d="M14.3223 -32.6836L24.6866 21.2989L101.006 -19.4793L14.3223 -32.6836Z" fill="#FBE5E6"/>
<path d="M24.6865 67.9024L65.2016 37.2217L24.6865 21.2988V67.9024Z" fill="#DDE1E9"/>
<path d="M53.4239 104.02L65.2016 37.2217L24.6865 67.9023L53.4239 104.02Z" fill="#E8D9E1"/>
<path d="M15.2638 108.136H0V95.0098L15.2638 108.136Z" fill="#F5F7DE"/>
<path d="M311.589 60.1357L261.087 108.137H259.956L278.141 62.4659L311.589 60.1357Z" fill="#EEF7F2"/>
<path d="M341.74 69.4562L353.517 27.9014L311.589 60.1355L341.74 69.4562Z" fill="#DADCE2"/>
<path d="M158.009 -2.77968L239.039 27.901L217.839 -24.1396L158.009 -2.77968Z" fill="#DDEFEC"/>
<path d="M307.82 11.5904L338.913 -13.6532L294.158 -38.1201L307.82 11.5904Z" fill="#DDE5EF"/>
<path d="M155.653 25.1829L239.039 27.9014L158.009 -2.7793L155.653 25.1829Z" fill="#EDDCE9"/>
<path d="M101.005 -19.4785L155.653 25.1832L158.009 -2.77891L101.005 -19.4785Z" fill="#E0F3E2"/>
<path d="M239.039 27.9016L307.82 11.5904L294.158 -38.1201L239.039 27.9016Z" fill="#DEEDF0"/>
<path d="M217.839 -24.1391L239.039 27.9016L294.158 -38.1201L217.839 -24.1391Z" fill="#FEFCF4"/>
<path d="M24.6859 21.2989L0 2.4244V-20.722L14.3216 -32.6836L24.6859 21.2989Z" fill="#F8E9BA"/>
<path d="M54.9306 108.137H38.3477L53.423 104.021L54.9306 108.137Z" fill="#FEFBF4"/>
<path d="M68.6876 108.137H54.9314L53.4238 104.021L68.6876 108.137Z" fill="#DCE4E7"/>
<path d="M53.4233 104.02L38.348 108.136H15.2638L0 95.0098V93.8447L53.4233 104.02Z" fill="#DEEDF0"/>
<path d="M173.084 67.9023L117.023 108.137H99.215L65.2012 37.2217L173.084 67.9023Z" fill="#F9E3EA"/>
<path d="M99.2153 108.137H68.6876L53.4238 104.02L65.2015 37.2217L99.2153 108.137Z" fill="#FEFBF4"/>
<path d="M53.4233 104.02L0 93.845V91.8255L24.6859 67.9023L53.4233 104.02Z" fill="#FCD9E7"/>
<path d="M24.6859 21.2993L0 46.9312V2.4248L24.6859 21.2993Z" fill="#EEF7F2"/>
<path d="M181.47 108.137H117.022L173.084 67.9023L181.47 108.137Z" fill="#FDF5ED"/>
<path d="M24.6859 67.9029L0 91.826V61.4561L24.6859 67.9029Z" fill="#F7EDBD"/>
<path d="M24.6859 21.2988V67.9024L0 61.4555V46.9308L24.6859 21.2988Z" fill="#E7D9E2"/>
<path d="M341.74 69.4565L262.689 108.137H261.087L311.589 60.1357L341.74 69.4565Z" fill="#DEEAE6"/>
<path d="M375 80.4857V90.8938L341.74 69.4562L353.518 27.9014L375 80.4857Z" fill="#FEFCF4"/>
<path d="M375 42.2708V80.4857L353.518 27.9014L375 42.2708Z" fill="#ECF5F2"/>
<path d="M375 13.2988V42.2707L353.518 27.9013L375 13.2988Z" fill="#EDF1D5"/>
<path d="M258.731 108.137H203.141L247.048 67.9023L258.731 108.137Z" fill="#FFF9FB"/>
<path d="M278.141 62.4658L259.956 108.137H258.731L247.048 67.9029L278.141 62.4658Z" fill="#FEFBF4"/>
<path d="M353.518 108.137H262.688L341.74 69.4561L353.518 108.137Z" fill="#DCDEE7"/>
<path d="M247.048 67.9023L203.141 108.137H181.47L173.084 67.9023H247.048Z" fill="#E8E3EF"/>
<path d="M375 90.8937V108.137H353.518L341.74 69.4561L375 90.8937Z" fill="#DEEDF0"/>
<path d="M375 9.95916V13.2991L353.517 27.9015L338.913 -13.6533L375 9.95916Z" fill="#FDF1E0"/>
<path d="M307.82 11.5903L353.518 27.9015L338.913 -13.6533L307.82 11.5903Z" fill="#D9DAE1"/>
<path d="M375 0.0942497V9.95868L338.913 -13.6538L364.353 -48.6064L375 0.0942497Z" fill="#FFFDFC"/>
<path d="M375 -50.4707V0.094162L364.354 -48.6066L375 -50.4707Z" fill="#ECF5F2"/>
<path d="M311.589 60.1352L353.518 27.9011L307.82 11.5898L311.589 60.1352Z" fill="#DFF3EF"/>
</svg>
