<svg width="96" height="96" viewBox="0 0 96 96" fill="none" xmlns="http://www.w3.org/2000/svg">
<mask id="mask0_623_14266" style="mask-type:alpha" maskUnits="userSpaceOnUse" x="0" y="0" width="96" height="96">
<circle cx="48" cy="48" r="48" fill="#C4C4C4"/>
</mask>
<g mask="url(#mask0_623_14266)">
<path fill-rule="evenodd" clip-rule="evenodd" d="M29.8185 97.7992C31.3972 98.3757 33.0109 98.8793 34.6557 99.3059C40.7715 91.4188 44.4132 83.2145 46.2522 74.9807C48.2714 65.9326 48.1203 56.8245 46.6787 48.0493C46.5599 47.3071 47.0566 46.6086 47.7909 46.4885C48.5252 46.3685 49.2163 46.8705 49.3351 47.6127C50.8279 56.7017 50.9791 66.1536 48.8761 75.5783C47.0321 83.8357 43.4616 92.0555 37.547 99.9694C39.0927 100.279 40.6627 100.521 42.2537 100.692C45.2805 96.211 47.6586 91.8128 49.497 87.5569C51.9509 81.8759 53.4492 76.4514 54.2536 71.4171C54.7666 68.2056 55.4927 61.8042 55.2012 55.7222C55.0365 52.295 54.5533 48.9879 53.5221 46.4749C52.6015 44.2265 51.2436 42.6521 49.2811 42.3301C48.9274 42.2728 48.5495 42.251 48.1446 42.2728C46.1577 42.3683 44.762 42.9604 43.9063 43.9755C42.9911 45.0615 42.6105 46.7068 42.7104 48.8215C42.7207 49.0642 42.7829 49.5841 42.8662 50.2807L42.8777 50.3768C43.7073 57.3485 46.4527 80.4379 29.8185 97.7992ZM45.3338 100.934C46.217 100.978 47.1059 101 48 101C48.7642 101 49.5246 100.984 50.2809 100.952C52.8204 96.2661 55.0722 91.8101 56.937 87.1094C59.1425 81.5485 60.8135 75.6301 61.7881 68.5494C61.8907 67.8045 62.571 67.2833 63.3079 67.387C64.0449 67.4907 64.5605 68.1783 64.4579 68.9232C63.451 76.2441 61.7233 82.3671 59.4395 88.1244C57.7346 92.4212 55.7238 96.5025 53.4733 100.721C55.3595 100.527 57.2164 100.235 59.0387 99.8488C63.7014 90.8775 67.9019 76.7021 68.8285 63.2204C69.776 49.4518 67.3087 36.4854 58.3732 30.8809C58.141 30.7362 57.8953 30.5916 57.6416 30.447V30.4497C56.991 30.0841 56.7588 29.2573 57.1206 28.5997C57.4823 27.9421 58.3003 27.7075 58.9509 28.0731C59.2289 28.2286 59.507 28.3951 59.7877 28.5697C69.7437 34.8155 72.5269 48.7314 71.52 63.4032C70.6377 76.2402 66.8504 89.7176 62.4686 99.001C64.2315 98.5018 65.9571 97.9137 67.6401 97.2419C68.5141 95.417 69.3493 93.416 70.1297 91.276C71.2392 88.2336 72.2272 84.9374 73.056 81.4939L73.0533 81.4912C73.2288 80.7599 73.9549 80.3124 74.6784 80.4898C75.4019 80.6671 75.8446 81.4011 75.6692 82.1324C74.8107 85.7069 73.793 89.104 72.6592 92.2146C72.2337 93.3814 71.7908 94.5121 71.3324 95.6011C73.4016 94.5849 75.3949 93.4378 77.3014 92.1705C80.7287 82.633 82.9112 69.6309 82.6961 57.1301C82.499 45.6481 80.2773 34.6354 75.1347 27.2409V27.2354C74.7054 26.6215 74.8539 25.7702 75.4613 25.339C76.0687 24.9052 76.911 25.0553 77.3375 25.6692C82.8149 33.5467 85.177 45.1024 85.3848 57.0837C85.5807 68.3802 83.859 80.0978 81.0305 89.4511C83.2869 87.6508 85.3929 85.6701 87.3269 83.5308C88.2244 79.3527 88.8482 75.2497 89.2398 71.0733C89.7689 65.4169 89.8742 59.6132 89.6555 53.2937L89.6528 53.2964C89.6285 52.5461 90.2116 51.9185 90.954 51.8939C91.6964 51.8694 92.3173 52.4587 92.3416 53.2091C92.5629 59.6377 92.455 65.5534 91.915 71.3298C91.67 73.9452 91.3362 76.5311 90.9043 79.1227C93.1799 75.991 95.121 72.6006 96.6752 69.0038C97.1273 57.1445 96.5509 44.9479 93.2297 34.0979C89.4261 21.6745 81.9888 10.9784 68.2859 4.55246C67.3411 4.11043 66.3989 3.70387 65.4568 3.3355C64.5389 2.97533 63.5725 2.63425 62.5574 2.30954V2.30682C61.8475 2.08034 61.4533 1.3136 61.6774 0.595975C61.9015 -0.12165 62.66 -0.520028 63.37 -0.293553C64.3689 0.0256948 65.3893 0.3886 66.4286 0.795164C67.4571 1.199 68.4533 1.62739 69.4143 2.07761C83.9217 8.87732 91.7855 20.1765 95.8024 33.2957C98.4329 41.885 99.3967 51.2359 99.495 60.5924C100.479 56.5562 101 52.339 101 48C101 18.7289 77.2711 -5 48 -5C18.7289 -5 -5 18.7289 -5 48C-5 53.9326 -4.02527 59.6375 -2.22723 64.9633C-1.01619 61.2824 -1.41272 57.2546 -1.84029 52.9117L-1.84259 52.8882C-2.27386 48.4937 -2.73477 43.7972 -1.7404 38.6983C0.575811 26.807 6.95485 16.3919 15.8769 8.98646C24.645 1.70925 35.8589 -2.65926 48.0798 -2.65926C49.1677 -2.65926 50.2745 -2.62106 51.3975 -2.54739C52.4881 -2.47644 53.5896 -2.3673 54.6964 -2.21995C55.4333 -2.12172 55.9517 -1.43957 55.8572 -0.694659C55.76 0.0502524 55.0851 0.574146 54.3481 0.478644C53.3358 0.344943 52.2965 0.243984 51.2274 0.17304C50.2124 0.107553 49.1623 0.0720811 48.0771 0.0720811C36.496 0.0720811 25.876 4.20593 17.583 11.0902C9.13878 18.1 3.09719 27.964 0.905156 39.225C-0.0172629 43.9576 0.423843 48.4424 0.836556 52.6385L0.837667 52.6497C1.40396 58.4016 1.91922 63.6494 -0.855633 68.5811C-0.234436 70.0539 0.451415 71.4928 1.19836 72.8942C6.79779 67.0547 6.12883 61.1083 5.4215 54.8272C5.16504 52.5542 4.90589 50.2376 4.90319 47.7901C4.90319 47.0397 5.50519 46.4312 6.24756 46.4312C6.98994 46.4312 7.59194 47.0397 7.59194 47.7901C7.59464 50.033 7.8484 52.3005 8.09945 54.527L8.09992 54.5311C8.90972 61.7297 9.67499 68.5325 2.59589 75.3551C3.36939 76.6362 4.19558 77.882 5.07146 79.0893C13.8744 69.5001 13.3364 63.6138 12.5186 54.6716L12.5164 54.6474C12.3551 52.8863 12.1834 51.0119 12.0705 49.0725C11.733 43.3752 12.7778 37.364 15.256 31.885C17.5425 26.8316 21.0465 22.2284 25.8112 18.7413C26.4132 18.2992 27.2555 18.4356 27.6928 19.0441C28.1301 19.6526 27.9951 20.5039 27.3931 20.946C23.0199 24.1466 19.802 28.3733 17.7017 33.0119C15.4098 38.0735 14.4461 43.6344 14.7592 48.9088C14.8807 50.9444 15.0427 52.7343 15.1966 54.4206C16.0937 64.2278 16.6797 70.6395 6.73893 81.2673C7.72448 82.4882 8.7631 83.6644 9.8513 84.7924C11.3866 83.1141 12.7015 81.5196 13.809 79.8977C15.4881 77.4392 16.7002 74.8934 17.5101 71.851C17.7017 71.1252 18.4414 70.6913 19.1595 70.8851C19.8776 71.0788 20.3068 71.8264 20.1151 72.5522C19.2243 75.9057 17.8826 78.7189 16.0253 81.4421C14.8265 83.1996 13.4185 84.9075 11.7813 86.694C12.7458 87.5972 13.7442 88.4648 14.7742 89.2946C28.278 74.8707 27.2279 61.9091 26.3922 51.5932L26.3916 51.5856C26.3052 50.5214 26.2215 49.4873 26.1459 48.3358C26.0946 47.5227 26.0784 46.7095 26.1027 45.8964C26.2674 40.0381 28.4244 35.1211 31.9257 31.5712C35.4216 28.024 40.243 25.8602 45.7339 25.4973C46.5005 25.4455 47.2969 25.4318 48.1203 25.4564L48.3227 25.4618L48.4258 25.4648C49.0415 25.4828 49.6532 25.5006 50.2745 25.5601C51.0142 25.631 51.5568 26.2941 51.4866 27.0417C51.4164 27.7893 50.7604 28.3378 50.0207 28.2668C49.4837 28.2156 48.9253 28.1981 48.3611 28.1803L48.2498 28.1768L48.0474 28.1713C47.3374 28.1522 46.622 28.1659 45.9039 28.2123C41.0825 28.5315 36.8685 30.4115 33.837 33.4867C30.8081 36.5591 28.9373 40.8403 28.7942 45.9674C28.7753 46.6659 28.7888 47.3972 28.8374 48.1612C28.8995 49.1025 28.9886 50.2185 29.083 51.3673C29.9617 62.1778 31.0616 75.7502 16.9356 90.9466C18.104 91.7932 19.3084 92.5934 20.546 93.3443C25.8996 88.3849 29.1821 82.6791 31.1212 77.0435C34.5577 67.0568 33.7965 57.2829 32.8543 52.2377C32.7166 51.4983 33.1999 50.7888 33.9287 50.6497C34.6603 50.5105 35.3622 50.9989 35.4999 51.7357C36.496 57.0592 37.2978 67.3761 33.6615 77.9385C31.6679 83.7301 28.3457 89.5925 23.001 94.7456C24.3321 95.4589 25.6972 96.1171 27.0933 96.717C43.7081 80.1941 41.0066 57.4809 40.1998 50.6988L40.1897 50.6132C40.1056 49.8975 40.0424 49.3592 40.0216 48.9497C39.8893 46.1447 40.4751 43.8609 41.86 42.2182C43.2098 40.6166 45.2398 39.6916 48.0177 39.5578C48.6062 39.5278 49.1677 39.5606 49.7022 39.6479C52.7392 40.1445 54.7396 42.3356 56.0084 45.4326C57.1692 48.2649 57.7118 51.8857 57.8872 55.5966C58.1869 61.8997 57.4391 68.5248 56.9073 71.8455C56.0677 77.0954 54.5101 82.7436 51.9617 88.6456C50.2345 92.6412 48.0539 96.7537 45.3338 100.934ZM34.0448 46.3903C34.7737 46.5431 35.4864 46.071 35.6376 45.3343C36.2854 42.1773 37.862 39.7434 39.9352 38.068C42.2271 36.218 45.1346 35.2767 48.069 35.3012C48.6197 35.3067 49.1596 35.3367 49.686 35.3885C54.5425 35.8742 57.6308 38.4418 59.4935 41.989C61.4452 45.7027 62.1147 50.4941 62.0769 55.1846C62.0634 56.7045 61.9771 58.2216 61.8313 59.695C61.7584 60.4427 62.2983 61.1084 63.038 61.1821C63.7776 61.2558 64.4363 60.7101 64.5092 59.9624C64.6604 58.4262 64.7522 56.83 64.7657 55.2064C64.8089 50.1094 64.0584 44.8623 61.8772 40.7121C59.6095 36.3954 55.8572 33.2739 49.9506 32.6817C49.3594 32.6217 48.7412 32.589 48.0906 32.5835C44.5569 32.5562 41.0447 33.6995 38.2588 35.9479C35.7158 38.0025 33.783 40.9658 33.0001 44.7804C32.8489 45.5171 33.3159 46.2375 34.0448 46.3903ZM20.8548 65.7143C21.5891 65.8344 22.2802 65.3323 22.399 64.5901L22.4044 64.5983C23.2438 59.4801 22.7176 55.6439 22.2102 51.9443L22.21 51.943L22.2039 51.8985C21.9711 50.2003 21.7423 48.531 21.6674 46.8242C21.6404 46.2266 21.635 45.6399 21.6539 45.0642C21.8483 38.7502 24.5937 32.9164 28.9589 28.5779C33.3348 24.2285 39.3332 21.3907 46.02 21.0906C46.6922 21.0606 47.3698 21.0551 48.0447 21.0769C60.3735 21.4644 68.024 26.9544 72.0275 36.2289C76.1389 45.7545 76.5141 59.2748 74.2033 75.4091C74.098 76.1513 74.6109 76.8416 75.3479 76.948C76.0822 77.0545 76.7652 76.536 76.8705 75.7911C79.2488 59.182 78.8222 45.1679 74.4949 35.1402C70.0595 24.8615 61.6396 18.7822 48.1176 18.3565C47.3671 18.332 46.6274 18.3374 45.9012 18.3702C38.5234 18.7031 31.9014 21.8355 27.0692 26.6351C22.2262 31.4457 19.1784 37.9398 18.9624 44.9851C18.9435 45.6372 18.9462 46.2866 18.9759 46.936C19.0596 48.8078 19.2972 50.5432 19.5401 52.3087C20.0207 55.8095 20.5174 59.4385 19.7426 64.1536C19.6238 64.8958 20.1205 65.5943 20.8548 65.7143ZM30.5597 17.145C30.8917 17.8163 31.6989 18.0891 32.363 17.7535L32.3657 17.7562C38.3371 14.722 45.2236 13.5733 51.8834 14.31C58.3813 15.0276 64.6496 17.5461 69.6303 21.8628C70.1945 22.3512 71.0448 22.283 71.5281 21.7127C72.0113 21.1424 71.9438 20.2829 71.3796 19.7945C65.9724 15.1095 59.1857 12.3781 52.1669 11.6005C45.0131 10.8092 37.6055 12.048 31.1617 15.3223C30.4976 15.6579 30.2277 16.4738 30.5597 17.145ZM6.25026 41.6562C6.98454 41.7844 7.68102 41.2851 7.8052 40.5429L7.8079 40.5456C9.43573 30.9927 14.6621 22.8724 21.7106 17.0441C29.1694 10.8774 38.6556 7.28654 48.0798 7.28654C58.5918 7.28654 68.3183 11.2894 75.6557 18.1191C82.85 24.8151 87.755 34.2343 88.8619 45.2661C88.9347 46.0138 89.5934 46.5595 90.3331 46.4858C91.0728 46.4121 91.6127 45.7463 91.5398 44.9987C90.3601 33.2657 85.1392 23.2462 77.4779 16.1136C69.6492 8.82547 59.2802 4.55519 48.0771 4.55519C38.0321 4.55519 27.9303 8.37525 19.9991 14.9321C12.4754 21.1533 6.89545 29.8413 5.14885 40.0845C5.02197 40.8267 5.51598 41.5306 6.25026 41.6562Z" fill="#F7DFA1"/>
</g>
</svg>
