<svg width="34" height="34" viewBox="0 0 34 34" fill="none" xmlns="http://www.w3.org/2000/svg">
    <rect width="34" height="34" rx="4" fill="#FED79D"/>
    <path d="M22.4475 8.91375L18.685 14.5C18.6314 14.5805 18.6088 14.6776 18.6213 14.7734C18.6338 14.8693 18.6805 14.9574 18.7529 15.0214C18.8254 15.0854 18.9185 15.1211 19.0152 15.1217C19.1118 15.1224 19.2055 15.088 19.2788 15.025L22.9825 11.815C23.0042 11.7956 23.0311 11.7829 23.0599 11.7785C23.0887 11.7741 23.1181 11.7782 23.1446 11.7903C23.1711 11.8023 23.1936 11.8218 23.2092 11.8464C23.2248 11.871 23.2329 11.8996 23.2325 11.9288V21.9862C23.2325 22.017 23.223 22.0471 23.2053 22.0723C23.1877 22.0975 23.1626 22.1167 23.1337 22.1272C23.1048 22.1377 23.0733 22.139 23.0436 22.1311C23.0138 22.1231 22.9873 22.1061 22.9675 22.0825L11.7725 8.67875C11.5924 8.46612 11.3682 8.29526 11.1154 8.17804C10.8627 8.06083 10.5874 8.00007 10.3087 8L9.9175 8C9.40895 8 8.92122 8.20202 8.56162 8.56162C8.20202 8.92122 8 9.40895 8 9.9175V24.0825C8 24.5911 8.20202 25.0788 8.56162 25.4384C8.92122 25.798 9.40895 26 9.9175 26C10.2454 26.0001 10.5678 25.9161 10.8541 25.7562C11.1403 25.5962 11.3808 25.3656 11.5525 25.0863L15.315 19.5C15.3686 19.4195 15.3912 19.3224 15.3787 19.2266C15.3662 19.1307 15.3195 19.0426 15.2471 18.9786C15.1746 18.9146 15.0815 18.8789 14.9848 18.8783C14.8882 18.8776 14.7945 18.912 14.7213 18.975L11.0175 22.185C10.9958 22.2044 10.9689 22.2171 10.9401 22.2215C10.9113 22.2259 10.8819 22.2218 10.8554 22.2097C10.8289 22.1977 10.8064 22.1782 10.7908 22.1536C10.7752 22.129 10.7671 22.1004 10.7675 22.0712V12.0138C10.7675 11.983 10.777 11.9529 10.7947 11.9277C10.8123 11.9025 10.8374 11.8833 10.8663 11.8728C10.8952 11.8623 10.9267 11.861 10.9564 11.8689C10.9862 11.8769 11.0127 11.8939 11.0325 11.9175L22.2262 25.3213C22.4065 25.534 22.6309 25.705 22.8839 25.8222C23.1369 25.9394 23.4124 26.0001 23.6912 26H24.0825C24.5911 26 25.0788 25.798 25.4384 25.4384C25.798 25.0788 26 24.5911 26 24.0825V9.9175C26 9.40895 25.798 8.92122 25.4384 8.56162C25.0788 8.20202 24.5911 8 24.0825 8C23.7546 7.99991 23.4322 8.08386 23.1459 8.24382C22.8597 8.40379 22.6192 8.63443 22.4475 8.91375Z"
          fill="#080500"/>
</svg>
