<svg width="24" height="24" viewBox="0 0 24 24" fill="none" xmlns="http://www.w3.org/2000/svg">
<rect width="24" height="24" rx="4" fill="#080500"/>
<path d="M11.5605 4.08522C11.8202 3.98783 12.1026 3.97391 12.3688 4.04348L12.5004 4.08522L19.1923 6.5947C19.2455 6.61463 19.2968 6.6377 19.3461 6.66365C19.6369 6.72336 19.892 6.92667 20.004 7.22541C20.0602 7.37538 20.0735 7.53094 20.0499 7.67856L20.0581 7.76245L20.0608 7.84787V16.1521C20.0608 16.6671 19.7659 17.1322 19.3097 17.3548L19.1923 17.4053L12.5004 19.9148C12.2407 20.0122 11.9583 20.0261 11.6921 19.9565L11.5605 19.9148L4.86856 17.4053C4.38637 17.2245 4.0544 16.7851 4.00618 16.2797L4.00011 16.1521V7.84787C4.00011 7.79085 4.00373 7.73445 4.01077 7.67892C3.98737 7.53157 4.00057 7.37568 4.05692 7.22541C4.16905 6.92639 4.42451 6.72298 4.71602 6.66392L4.79039 6.62695L4.86856 6.5947L11.5605 4.08522ZM5.78428 8.82623L5.78463 15.843L11.1378 17.8488V10.8338L5.78428 8.82623ZM18.2759 8.82623L12.9224 10.8338V17.8488L18.2763 15.8421L18.2759 8.82623ZM8.60828 7.09703L7.43228 7.53781L12.0304 9.26165L13.2052 8.81999L8.60828 7.09703ZM12.0304 5.81486L11.1503 6.1441L15.7472 7.86795L16.627 7.53781L12.0304 5.81486Z" fill="white"/>
</svg>
