<svg width="20" height="20" viewBox="0 0 20 20" fill="none" xmlns="http://www.w3.org/2000/svg">
<path fill-rule="evenodd" clip-rule="evenodd" d="M2 5C2 3.34315 3.34315 2 5 2H10C10.5523 2 11 2.44772 11 3C11 3.55228 10.5523 4 10 4H5C4.44772 4 4 4.44772 4 5V15C4 15.5523 4.44772 16 5 16H15C15.5523 16 16 15.5523 16 15V10C16 9.44772 16.4477 9 17 9C17.5523 9 18 9.44772 18 10V15C18 16.6569 16.6569 18 15 18H5C3.34315 18 2 16.6569 2 15V5Z" fill="#080500"/>
<path fill-rule="evenodd" clip-rule="evenodd" d="M18.4142 1.58579C19.1953 2.36683 19.1953 3.63317 18.4142 4.41421L11.4142 11.4142C10.6332 12.1953 9.36683 12.1953 8.58579 11.4142C7.80474 10.6332 7.80474 9.36683 8.58579 8.58579L15.5858 1.58579C16.3668 0.804738 17.6332 0.804738 18.4142 1.58579Z" fill="#080500"/>
<path d="M8 12V10L10 12H8Z" fill="#080500"/>
</svg>
