<svg width="24" height="24" viewBox="0 0 24 24" fill="none" xmlns="http://www.w3.org/2000/svg">
    <path fill-rule="evenodd" clip-rule="evenodd"
          d="M4.06128 11.4705C4.06128 13.0191 4.47846 14.5084 5.25504 15.8085C5.14971 16.7465 4.51022 17.8935 3.2832 19.223C2.64189 19.9178 3.16373 21.0409 4.10836 20.9989C6.3857 20.8975 8.17878 20.3653 9.46088 19.367C10.4308 19.7444 11.4682 19.9411 12.5318 19.9411C17.21 19.9411 21.0024 16.1487 21.0024 11.4705C21.0024 6.79239 17.21 3 12.5318 3C7.85367 3 4.06128 6.79239 4.06128 11.4705ZM10.4892 10.3515C10.4892 9.24083 11.3895 8.34043 12.5 8.34043C13.6105 8.34043 14.5108 9.24083 14.5108 10.3515V12.2668C14.5108 12.4325 14.533 12.5931 14.5745 12.7457H10.4255C10.467 12.5931 10.4892 12.4325 10.4892 12.2668V10.3515ZM15.851 12.2668C15.851 12.5313 16.0654 12.7457 16.3299 12.7457C16.7 12.7457 17 13.0458 17 13.4159C17 13.7861 16.7 14.0861 16.3299 14.0861H8.67011C8.30002 14.0861 8 13.7861 8 13.4159C8 13.0458 8.30002 12.7457 8.67011 12.7457C8.93458 12.7457 9.14897 12.5313 9.14897 12.2668V10.3515C9.14897 8.50054 10.6493 7 12.5 7C14.3507 7 15.851 8.50054 15.851 10.3515V12.2668ZM11.8374 14.2779C11.5978 14.2779 11.3764 14.4059 11.2568 14.6136C11.1371 14.8213 11.1375 15.0771 11.2578 15.2844C11.5147 15.7274 11.988 16 12.5 16C13.012 16 13.4853 15.7274 13.7422 15.2844C13.8625 15.0771 13.8629 14.8213 13.7433 14.6136C13.6236 14.4059 13.4022 14.2779 13.1626 14.2779H11.8374Z"
          fill="#A6A5A3"/>
</svg>
