<svg width="20" height="20" viewBox="0 0 20 20" fill="none" xmlns="http://www.w3.org/2000/svg">
<path d="M12.2658 5.68084H10.2126V4.05302C10.2126 2.91917 11.1318 2 12.2658 2C12.8103 2 13.3325 2.2163 13.7176 2.60131L17.3986 6.28215C18.2005 7.08391 18.2005 8.3838 17.3986 9.18556L13.7176 12.8664C12.9158 13.6681 11.6158 13.6681 10.814 12.8664C10.4289 12.4814 10.2126 11.9592 10.2126 11.4147V9.78687H12.2658V10.7951C12.2658 10.9369 12.3807 11.0518 12.5224 11.0518C12.5905 11.0518 12.6558 11.0247 12.7039 10.9766L15.5839 8.09678C15.7843 7.89634 15.7843 7.57137 15.5839 7.37093L12.7039 4.49111C12.6037 4.39089 12.4412 4.39089 12.3409 4.49111C12.2928 4.53923 12.2658 4.60451 12.2658 4.67257V5.68084ZM4.1972 12.4503C5.98828 10.0154 8.34434 8.76036 11.2392 8.76036C11.8062 8.76036 12.2658 9.21995 12.2658 9.78687C12.2658 10.3538 11.8062 10.8134 11.2392 10.8134C7.95801 10.8134 5.57031 12.9025 3.99335 17.3177C3.60587 18.4026 2 18.1244 2 16.9724V13.8889C2 8.78657 6.13653 4.65032 11.2392 4.65032C11.8062 4.65032 12.2658 5.1099 12.2658 5.67683C12.2658 6.24375 11.8062 6.70334 11.2392 6.70334C7.76316 6.70334 4.86358 9.17121 4.1972 12.4503Z" fill="#080500"/>
</svg>
