<svg width="26" height="26" viewBox="0 0 26 26" fill="none" xmlns="http://www.w3.org/2000/svg">
<path d="M11.0689 5.71429C8.96802 5.71429 8.26147 5.85073 7.53696 6.23821C6.97077 6.54101 6.54093 6.97084 6.23813 7.53704C5.85066 8.26155 5.71422 8.96809 5.71422 11.0689V14.9311C5.71422 17.0319 5.85066 17.7385 6.23813 18.463C6.54093 19.0292 6.97077 19.459 7.53696 19.7618C8.26147 20.1493 8.96802 20.2857 11.0689 20.2857H14.931C17.0318 20.2857 17.7384 20.1493 18.4629 19.7618C19.0291 19.459 19.4589 19.0292 19.7617 18.463C20.1492 17.7385 20.2856 17.0319 20.2856 14.9311V11.0689C20.2856 8.96809 20.1492 8.26155 19.7617 7.53704C19.4589 6.97084 19.0291 6.54101 18.4629 6.23821C17.7384 5.85073 17.0318 5.71429 14.931 5.71429H11.0689ZM11.0689 3.28572H14.931C17.6374 3.28572 18.6188 3.56751 19.6082 4.09666C20.5976 4.62581 21.3741 5.40231 21.9033 6.39172C22.4324 7.38114 22.7142 8.36255 22.7142 11.0689V14.9311C22.7142 17.6375 22.4324 18.6189 21.9033 19.6083C21.3741 20.5977 20.5976 21.3742 19.6082 21.9034C18.6188 22.4325 17.6374 22.7143 14.931 22.7143H11.0689C8.36247 22.7143 7.38107 22.4325 6.39165 21.9034C5.40223 21.3742 4.62573 20.5977 4.09658 19.6083C3.56744 18.6189 3.28564 17.6375 3.28564 14.9311V11.0689C3.28564 8.36255 3.56744 7.38114 4.09658 6.39172C4.62573 5.40231 5.40223 4.62581 6.39165 4.09666C7.38107 3.56751 8.36247 3.28572 11.0689 3.28572ZM17.2499 7.53572C17.9206 7.53572 18.4642 8.07937 18.4642 8.75001C18.4642 9.42064 17.9206 9.96429 17.2499 9.96429C16.5793 9.96429 16.0356 9.42064 16.0356 8.75001C16.0356 8.07937 16.5793 7.53572 17.2499 7.53572ZM12.9999 9.35715C15.0118 9.35715 16.6428 10.9881 16.6428 13C16.6428 15.0119 15.0118 16.6429 12.9999 16.6429C10.988 16.6429 9.35707 15.0119 9.35707 13C9.35707 10.9881 10.988 9.35715 12.9999 9.35715Z" fill="white"/>
</svg>
