<svg width="140" height="32" viewBox="0 0 140 32" fill="none" xmlns="http://www.w3.org/2000/svg">
    <rect x="13.5728" y="13.5236" width="4.95271" height="4.95271" fill="#080500"/>
    <g filter="url(#filter0_f_27_15139)">
        <mask id="mask0_27_15139" style="mask-type:alpha" maskUnits="userSpaceOnUse" x="2" y="2" width="28" height="28">
            <path d="M23.1841 4.10842L24.9494 2.39213H29.6815V7.46743L28.1368 9.06113H23.1841V4.10842Z" fill="white"/>
            <path d="M24.8144 29.4359L23.0981 27.6706V22.9385H28.1735L29.7671 24.4832V29.4359H24.8144Z" fill="white"/>
            <path d="M3.91258 8.97535L2.19629 7.21003L2.19629 2.47798H7.2716L8.86529 4.02263V8.97535H3.91258Z"
                  fill="white"/>
            <path d="M8.98779 28.0874L7.22247 29.8036H2.49042L2.49042 24.7283L4.03508 23.1346H8.98779V28.0874Z"
                  fill="white"/>
        </mask>
        <g mask="url(#mask0_27_15139)">
            <rect x="16.0618" y="-13.741" width="45.7157" height="44.086" transform="rotate(44.8236 16.0618 -13.741)"
                  fill="url(#paint0_linear_27_15139)"/>
        </g>
        <mask id="mask1_27_15139" style="mask-type:alpha" maskUnits="userSpaceOnUse" x="2" y="2" width="29" height="28">
            <rect x="2" y="13.5236" width="6.86515" height="4.95271" fill="url(#paint1_linear_27_15139)"/>
            <rect x="23.1838" y="13.5236" width="6.86515" height="4.95271" fill="url(#paint2_linear_27_15139)"/>
            <rect x="13.5728" y="2" width="4.95271" height="6.86515" fill="url(#paint3_linear_27_15139)"/>
            <rect x="13.5728" y="23.1348" width="4.95271" height="6.86515" fill="url(#paint4_linear_27_15139)"/>
        </mask>
        <g mask="url(#mask1_27_15139)">
            <rect x="16.1665" y="-7.71468" width="35.7968" height="34.4729" transform="rotate(44.8236 16.1665 -7.71468)"
                  fill="url(#paint5_linear_27_15139)"/>
        </g>
    </g>
    <mask id="mask2_27_15139" style="mask-type:alpha" maskUnits="userSpaceOnUse" x="2" y="2" width="28" height="28">
        <path d="M23.1841 4.10842L24.9494 2.39213H29.6815V7.46743L28.1368 9.06113H23.1841V4.10842Z" fill="white"/>
        <path d="M24.8144 29.4359L23.0981 27.6706V22.9385H28.1735L29.7671 24.4832V29.4359H24.8144Z" fill="white"/>
        <path d="M3.91258 8.97535L2.19629 7.21003L2.19629 2.47798H7.2716L8.86529 4.02263V8.97535H3.91258Z"
              fill="white"/>
        <path d="M8.98779 28.0874L7.22247 29.8036H2.49042L2.49042 24.7283L4.03508 23.1346H8.98779V28.0874Z"
              fill="white"/>
    </mask>
    <g mask="url(#mask2_27_15139)">
        <rect x="15.8779" y="-11.4523" width="39.3051" height="39.2997" transform="rotate(44.8236 15.8779 -11.4523)"
              fill="url(#paint6_diamond_27_15139)"/>
    </g>
    <mask id="mask3_27_15139" style="mask-type:alpha" maskUnits="userSpaceOnUse" x="2" y="2" width="29" height="28">
        <rect x="2" y="13.5236" width="6.86515" height="4.95271" fill="url(#paint7_linear_27_15139)"/>
        <rect x="23.1838" y="13.5236" width="6.86515" height="4.95271" fill="url(#paint8_linear_27_15139)"/>
        <rect x="13.5728" y="2" width="4.95271" height="6.86515" fill="url(#paint9_linear_27_15139)"/>
        <rect x="13.5728" y="23.1348" width="4.95271" height="6.86515" fill="url(#paint10_linear_27_15139)"/>
    </mask>
    <g mask="url(#mask3_27_15139)">
        <rect x="16.1665" y="-7.71468" width="35.7968" height="34.4729" transform="rotate(44.8236 16.1665 -7.71468)"
              fill="url(#paint11_diamond_27_15139)"/>
    </g>
    <path d="M44.2118 22.1529C42.3387 22.1529 40.7332 22.051 39.3952 21.8471V19.5726C40.9625 19.7255 42.3005 19.8019 43.4091 19.8019C44.0589 19.8019 44.5622 19.7765 44.919 19.7255C45.2886 19.6618 45.5625 19.5598 45.7409 19.4197C45.9066 19.2922 46.0085 19.1393 46.0467 18.9609C46.0977 18.7825 46.1232 18.5277 46.1232 18.1964C46.1232 17.8269 46.0977 17.5593 46.0467 17.3936C45.9958 17.2152 45.8938 17.0878 45.7409 17.0114C45.588 16.9222 45.3332 16.8584 44.9764 16.8202L42.1667 16.4953C41.3257 16.3806 40.6758 16.164 40.2171 15.8454C39.7584 15.5141 39.4398 15.0936 39.2614 14.5839C39.0958 14.0615 39.0129 13.418 39.0129 12.6535C39.0129 11.5321 39.2168 10.6848 39.6246 10.1114C40.0323 9.52521 40.5803 9.14294 41.2683 8.96454C41.9564 8.78615 42.842 8.69695 43.9251 8.69695C45.5944 8.69695 47.0215 8.82438 48.2066 9.07922V11.2964C46.9706 11.1307 45.7282 11.0479 44.4794 11.0479C43.3326 11.0479 42.5744 11.1435 42.2049 11.3346C42.001 11.4366 41.8736 11.5704 41.8226 11.736C41.7717 11.9017 41.7462 12.1501 41.7462 12.4814C41.7462 12.8637 41.7717 13.1377 41.8226 13.3033C41.8736 13.469 41.9819 13.59 42.1476 13.6665C42.326 13.7302 42.619 13.7875 43.0268 13.8385L46.0467 14.2017C46.6329 14.2654 47.1171 14.3864 47.4994 14.5648C47.8816 14.7305 48.1811 15.0108 48.3977 15.4058C48.7035 15.9537 48.8564 16.8011 48.8564 17.9479C48.8564 19.1584 48.6653 20.0695 48.283 20.6812C47.9008 21.2928 47.3847 21.6942 46.7348 21.8853C46.0977 22.0637 45.2567 22.1529 44.2118 22.1529Z"
          fill="#080500"/>
    <path d="M51.591 10.1114V7.79861H54.2096V10.1114H51.591ZM51.6101 22V12.2521H54.1713V22H51.6101Z" fill="#080500"/>
    <path d="M63.3342 16.8393C63.3342 16.0238 63.296 15.4568 63.2195 15.1382C63.1558 14.8197 63.0157 14.6158 62.799 14.5266C62.5824 14.4247 62.2001 14.3737 61.6522 14.3737C61.1043 14.3737 60.6965 14.4565 60.429 14.6222C60.1741 14.7878 60.0021 15.049 59.9129 15.4058C59.8364 15.7626 59.7982 16.2787 59.7982 16.954V22H57.2561V12.2521H59.6453L59.7218 13.4562H59.8747C60.1168 12.9848 60.4799 12.6407 60.9641 12.4241C61.4483 12.2075 62.0664 12.0992 62.8182 12.0992C63.6719 12.0992 64.3218 12.2393 64.7677 12.5197C65.2137 12.8 65.5068 13.2078 65.647 13.7429C65.7999 14.2781 65.8763 14.9981 65.8763 15.9028V22H63.3342V16.8393Z"
          fill="#080500"/>
    <path d="M72.696 25.9374C72.0844 25.9374 71.46 25.9119 70.8229 25.8609C70.1857 25.8227 69.6888 25.7717 69.332 25.708V23.7585C70.0965 23.7967 71.014 23.8158 72.0844 23.8158C72.9891 23.8158 73.6262 23.7585 73.9957 23.6438C74.3652 23.5291 74.601 23.3125 74.7029 22.9939C74.8176 22.6881 74.8749 22.1465 74.8749 21.3693V20.7767H74.7603C74.5054 21.2355 74.1422 21.5604 73.6708 21.7515C73.1993 21.9299 72.6259 22.0191 71.9506 22.0191C71.1096 22.0191 70.447 21.8726 69.9627 21.5795C69.4913 21.2864 69.1472 20.7895 68.9306 20.0886C68.714 19.3751 68.6057 18.3748 68.6057 17.0878C68.6057 15.8008 68.714 14.8006 68.9306 14.087C69.16 13.3607 69.5104 12.851 69.9819 12.5579C70.4661 12.2521 71.1223 12.0992 71.9506 12.0992C73.3904 12.0992 74.3461 12.5515 74.8176 13.4562H74.9705L75.047 12.2521H77.417V20.8532C77.417 22.1784 77.3151 23.185 77.1112 23.8731C76.9201 24.5612 76.4868 25.0773 75.8115 25.4213C75.1489 25.7654 74.1104 25.9374 72.696 25.9374ZM73.04 19.7637C73.4605 19.7637 73.7855 19.7191 74.0148 19.6299C74.2569 19.528 74.4417 19.3687 74.5691 19.1521C74.6965 18.9482 74.7794 18.687 74.8176 18.3684C74.8558 18.0499 74.8749 17.623 74.8749 17.0878C74.8749 16.5526 74.8558 16.1258 74.8176 15.8072C74.7794 15.4759 74.7029 15.2147 74.5882 15.0235C74.4481 14.7814 74.2569 14.6094 74.0148 14.5075C73.7855 14.4055 73.4605 14.3546 73.04 14.3546C72.4411 14.3546 72.0143 14.4119 71.7594 14.5266C71.5173 14.6413 71.358 14.877 71.2816 15.2338C71.2051 15.5906 71.1669 16.2086 71.1669 17.0878C71.1669 17.9543 71.2051 18.5596 71.2816 18.9036C71.358 19.2476 71.5173 19.477 71.7594 19.5917C72.0143 19.7064 72.4411 19.7637 73.04 19.7637Z"
          fill="#080500"/>
    <path d="M86.6677 20.7958H86.5148C86.2727 21.2673 85.9095 21.6114 85.4253 21.828C84.9411 22.0446 84.3231 22.1529 83.5713 22.1529C82.7176 22.1529 82.0677 22.0127 81.6217 21.7324C81.1757 21.4521 80.8763 21.0443 80.7234 20.5091C80.5705 19.974 80.494 19.254 80.494 18.3493V12.2521H83.0361V17.4127C83.0361 18.2155 83.068 18.7825 83.1317 19.1139C83.2082 19.4324 83.3547 19.6427 83.5713 19.7446C83.8007 19.8338 84.1893 19.8784 84.7372 19.8784C85.2724 19.8784 85.6674 19.7956 85.9223 19.6299C86.1899 19.4643 86.3619 19.2094 86.4383 18.8654C86.5275 18.5086 86.5721 17.9862 86.5721 17.2981V12.2521H89.1142V22H86.7442L86.6677 20.7958Z"
          fill="#080500"/>
    <path d="M92.1877 22V7.79861H94.7489V22H92.1877Z" fill="#080500"/>
    <path d="M100.242 22.1529C99.2608 22.1529 98.5281 21.9299 98.0439 21.4839C97.5724 21.038 97.3367 20.2989 97.3367 19.2668C97.3367 18.5022 97.4259 17.9033 97.6043 17.4701C97.7827 17.0368 98.0885 16.7247 98.5217 16.5335C98.9677 16.3296 99.5921 16.2277 100.395 16.2277C101.057 16.2277 102.051 16.2532 103.377 16.3042V15.941C103.377 15.3676 103.313 14.9662 103.185 14.7368C103.071 14.5075 102.848 14.3609 102.516 14.2972C102.185 14.2335 101.612 14.2017 100.796 14.2017C100.401 14.2017 99.9106 14.2208 99.3245 14.259C98.7383 14.2972 98.2732 14.3355 97.9292 14.3737V12.405C99.1142 12.2011 100.35 12.0992 101.637 12.0992C102.886 12.0992 103.816 12.2393 104.428 12.5197C105.039 12.7873 105.441 13.195 105.632 13.7429C105.823 14.2781 105.919 15.049 105.919 16.0557V22H103.529L103.453 20.815H103.319C103.026 21.3501 102.612 21.7069 102.077 21.8853C101.542 22.0637 100.93 22.1529 100.242 22.1529ZM101.446 20.146C101.867 20.146 102.204 20.1014 102.459 20.0122C102.727 19.9102 102.937 19.751 103.09 19.5343C103.281 19.2285 103.377 18.7507 103.377 18.1008V17.795H101.083C100.701 17.795 100.42 17.8269 100.242 17.8906C100.064 17.9416 99.9425 18.0499 99.8788 18.2155C99.8151 18.3812 99.7832 18.6424 99.7832 18.9992C99.7832 19.3432 99.8214 19.5917 99.8979 19.7446C99.9871 19.8975 100.14 20.0058 100.357 20.0695C100.586 20.1205 100.949 20.146 101.446 20.146Z"
          fill="#080500"/>
    <path d="M109.005 12.2521H111.394L111.47 13.9341H111.623C111.865 13.246 112.235 12.7681 112.732 12.5006C113.229 12.233 113.898 12.0992 114.739 12.0992V14.603C113.898 14.603 113.248 14.7177 112.789 14.9471C112.33 15.1637 112.005 15.5269 111.814 16.0366C111.636 16.5463 111.547 17.2598 111.547 18.1773V22H109.005V12.2521Z"
          fill="#080500"/>
    <path d="M116.89 10.1114V7.79861H119.509V10.1114H116.89ZM116.909 22V12.2521H119.47V22H116.909Z" fill="#080500"/>
    <path d="M123.492 22V14.3546H121.619V12.2521H123.492V9.42327H126.034V12.2521H128.251V14.3546H126.034V22H123.492Z"
          fill="#080500"/>
    <path d="M134.38 25.9374C133.794 25.9374 133.195 25.9183 132.583 25.8801C131.971 25.8418 131.468 25.7909 131.073 25.7271V23.7776C132.411 23.8158 133.316 23.8349 133.787 23.8349C134.654 23.8349 135.265 23.7712 135.622 23.6438C135.992 23.5291 136.221 23.3188 136.31 23.013C136.412 22.7072 136.463 22.1784 136.463 21.4266V20.7385H136.329C136.087 21.1845 135.73 21.5094 135.259 21.7133C134.8 21.9172 134.201 22.0191 133.462 22.0191C132.608 22.0191 131.959 21.8789 131.513 21.5986C131.067 21.3183 130.767 20.9169 130.614 20.3945C130.461 19.8593 130.385 19.1393 130.385 18.2346V12.2521H132.927V17.2981C132.927 18.1136 132.959 18.6806 133.023 18.9992C133.099 19.3177 133.246 19.528 133.462 19.6299C133.692 19.7191 134.08 19.7637 134.628 19.7637C135.176 19.7637 135.577 19.6809 135.832 19.5152C136.087 19.3496 136.253 19.0947 136.329 18.7507C136.418 18.4066 136.463 17.8906 136.463 17.2025V12.2521H139.005V20.8914C139.005 22.2166 138.91 23.2169 138.718 23.8922C138.527 24.5676 138.1 25.0773 137.438 25.4213C136.788 25.7654 135.769 25.9374 134.38 25.9374Z"
          fill="#080500"/>
    <defs>
        <filter id="filter0_f_27_15139" x="0.486487" y="0.486487" width="31.0761" height="31.027"
                filterUnits="userSpaceOnUse" color-interpolation-filters="sRGB">
            <feFlood flood-opacity="0" result="BackgroundImageFix"/>
            <feBlend mode="normal" in="SourceGraphic" in2="BackgroundImageFix" result="shape"/>
            <feGaussianBlur stdDeviation="0.756757" result="effect1_foregroundBlur_27_15139"/>
        </filter>
        <linearGradient id="paint0_linear_27_15139" x1="16.0618" y1="-13.741" x2="16.0618" y2="30.345"
                        gradientUnits="userSpaceOnUse">
            <stop stop-color="#FFDF3A"/>
            <stop offset="1" stop-color="#F76B06"/>
        </linearGradient>
        <linearGradient id="paint1_linear_27_15139" x1="9.99299" y1="16.0245" x2="2" y2="16.0245"
                        gradientUnits="userSpaceOnUse">
            <stop stop-color="#2314A8"/>
            <stop offset="0.340521" stop-color="#E7334B"/>
            <stop offset="0.620297" stop-color="#EB9938"/>
            <stop offset="1" stop-color="#6CDBF0"/>
        </linearGradient>
        <linearGradient id="paint2_linear_27_15139" x1="21.7127" y1="16.0245" x2="30.049" y2="16.0245"
                        gradientUnits="userSpaceOnUse">
            <stop offset="0.0676537" stop-color="#2314A8"/>
            <stop offset="0.430208" stop-color="#E7334B"/>
            <stop offset="0.711458" stop-color="#EB9938"/>
            <stop offset="1" stop-color="#6CDBF0"/>
        </linearGradient>
        <linearGradient id="paint3_linear_27_15139" x1="16.0491" y1="2" x2="16.0491" y2="8.86515"
                        gradientUnits="userSpaceOnUse">
            <stop offset="0.0676537" stop-color="#2314A8"/>
            <stop offset="0.340521" stop-color="#E7334B"/>
            <stop offset="0.620297" stop-color="#EB9938"/>
            <stop offset="1" stop-color="#6CDBF0"/>
        </linearGradient>
        <linearGradient id="paint4_linear_27_15139" x1="16.0736" y1="23.1349" x2="16.4969" y2="29.0841"
                        gradientUnits="userSpaceOnUse">
            <stop stop-color="#2314A8"/>
            <stop offset="0.340521" stop-color="#E7334B"/>
            <stop offset="0.620297" stop-color="#EB9938"/>
            <stop offset="1" stop-color="#6CDBF0"/>
        </linearGradient>
        <linearGradient id="paint5_linear_27_15139" x1="16.1665" y1="-7.71468" x2="16.1665" y2="26.7582"
                        gradientUnits="userSpaceOnUse">
            <stop stop-color="#FFDF3A"/>
            <stop offset="1" stop-color="#F76B06"/>
        </linearGradient>
        <radialGradient id="paint6_diamond_27_15139" cx="0" cy="0" r="1" gradientUnits="userSpaceOnUse"
                        gradientTransform="translate(34.6765 7.30542) rotate(88.1028) scale(20.0546 20.059)">
            <stop offset="0.604167" stop-color="#FFDF3A"/>
            <stop offset="1" stop-color="#F76B06"/>
        </radialGradient>
        <linearGradient id="paint7_linear_27_15139" x1="9.99299" y1="16.0245" x2="2" y2="16.0245"
                        gradientUnits="userSpaceOnUse">
            <stop stop-color="#2314A8"/>
            <stop offset="0.340521" stop-color="#E7334B"/>
            <stop offset="0.620297" stop-color="#EB9938"/>
            <stop offset="1" stop-color="#6CDBF0"/>
        </linearGradient>
        <linearGradient id="paint8_linear_27_15139" x1="21.7127" y1="16.0245" x2="30.049" y2="16.0245"
                        gradientUnits="userSpaceOnUse">
            <stop offset="0.0676537" stop-color="#2314A8"/>
            <stop offset="0.430208" stop-color="#E7334B"/>
            <stop offset="0.711458" stop-color="#EB9938"/>
            <stop offset="1" stop-color="#6CDBF0"/>
        </linearGradient>
        <linearGradient id="paint9_linear_27_15139" x1="16.0491" y1="2" x2="16.0491" y2="8.86515"
                        gradientUnits="userSpaceOnUse">
            <stop offset="0.0676537" stop-color="#2314A8"/>
            <stop offset="0.340521" stop-color="#E7334B"/>
            <stop offset="0.620297" stop-color="#EB9938"/>
            <stop offset="1" stop-color="#6CDBF0"/>
        </linearGradient>
        <linearGradient id="paint10_linear_27_15139" x1="16.0736" y1="23.1349" x2="16.4969" y2="29.0841"
                        gradientUnits="userSpaceOnUse">
            <stop stop-color="#2314A8"/>
            <stop offset="0.340521" stop-color="#E7334B"/>
            <stop offset="0.620297" stop-color="#EB9938"/>
            <stop offset="1" stop-color="#6CDBF0"/>
        </linearGradient>
        <radialGradient id="paint11_diamond_27_15139" cx="0" cy="0" r="1" gradientUnits="userSpaceOnUse"
                        gradientTransform="translate(33.2871 8.73916) rotate(88.0302) scale(17.5922 18.2678)">
            <stop offset="0.604167" stop-color="#FFDF3A"/>
            <stop offset="1" stop-color="#F76B06"/>
        </radialGradient>
    </defs>
</svg>
