<svg width="24" height="24" viewBox="0 0 24 24" fill="#080500" xmlns="http://www.w3.org/2000/svg">
    <path d="M12.1523 6.89576C11.2042 6.89576 9.73679 5.81789 8.19141 5.85685C6.15255 5.88282 4.28252 7.03861 3.23062 8.86968C1.11385 12.5448 2.6852 17.9731 4.75003 20.96C5.76296 22.4145 6.95771 24.0507 8.54204 23.9988C10.0614 23.9339 10.6328 23.0118 12.4769 23.0118C14.308 23.0118 14.8274 23.9988 16.4378 23.9598C18.074 23.9339 19.1129 22.4794 20.1129 21.0119C21.2687 19.3237 21.7492 17.6874 21.7751 17.5965C21.7362 17.5835 18.5935 16.3758 18.5545 12.7396C18.5286 9.70081 21.0349 8.24634 21.1518 8.18141C19.7233 6.0906 17.5286 5.85685 16.7624 5.8049C14.7625 5.64907 13.0873 6.89576 12.1523 6.89576V6.89576ZM15.5287 3.83098C16.3728 2.81804 16.9312 1.40253 16.7754 0C15.5677 0.0519454 14.1132 0.805154 13.2431 1.81809C12.4639 2.71415 11.7886 4.15564 11.9704 5.53219C13.308 5.63608 14.6846 4.84391 15.5287 3.83098"
    />
</svg>
