<svg width="20" height="20" viewBox="0 0 20 20" fill="#080500" xmlns="http://www.w3.org/2000/svg">
    <path d="M10.0001 3.97406L10.263 3.67823C12.0976 1.61432 15.258 1.42842 17.3219 3.26301C19.3858 5.0976 19.5717 8.25796 17.7371 10.3219L11.4949 17.3444C10.761 18.1699 9.49689 18.2443 8.67133 17.5105C8.61276 17.4584 8.5573 17.4029 8.50523 17.3444L2.26301 10.3219C0.428417 8.25796 0.61432 5.0976 2.67823 3.26301C4.74215 1.42842 7.90251 1.61432 9.7371 3.67823L10.0001 3.97406ZM9.8132 6.77425L8.24228 5.00696C7.14153 3.76861 5.24531 3.65707 4.00696 4.75783C2.76861 5.85858 2.65707 7.7548 3.75783 8.99314L9.8132 15.8054C9.90493 15.9086 10.0629 15.9179 10.1661 15.8262C10.1735 15.8197 10.1804 15.8128 10.1869 15.8054L16.2423 8.99314C17.343 7.7548 17.2315 5.85858 15.9931 4.75783C14.7548 3.65707 12.8586 3.76861 11.7578 5.00696L10.1869 6.77425C10.0952 6.87744 9.93716 6.88674 9.83396 6.79501C9.82664 6.7885 9.81971 6.78157 9.8132 6.77425Z"
    />
</svg>
