<svg width="20" height="20" viewBox="0 0 20 20" fill="#080500" xmlns="http://www.w3.org/2000/svg">
    <path d="M7.34066 2.08512C7.38001 1.64816 7.69957 1.28788 8.12871 1.19666C9.36239 0.934417 10.6375 0.934417 11.8712 1.19666C12.3003 1.28788 12.6199 1.64816 12.6592 2.08512L12.794 3.58182C13.278 3.79253 13.7367 4.05734 14.1613 4.37118L15.5249 3.73961C15.9229 3.55522 16.3947 3.65185 16.6883 3.97788C17.5322 4.91515 18.1697 6.01933 18.5595 7.21885C18.6951 7.63613 18.5428 8.09305 18.1841 8.34561L16.9553 9.21062C17.0148 9.73519 17.0148 10.2648 16.9553 10.7894L18.1841 11.6544C18.5428 11.907 18.6951 12.3639 18.5595 12.7811C18.1697 13.9807 17.5322 15.0849 16.6883 16.0221C16.3947 16.3482 15.9229 16.4448 15.5249 16.2604L14.1613 15.6288C13.7367 15.9427 13.278 16.2075 12.794 16.4182L12.6592 17.9149C12.6199 18.3518 12.3003 18.7121 11.8712 18.8033C10.6375 19.0656 9.36239 19.0656 8.12871 18.8033C7.69957 18.7121 7.38001 18.3518 7.34066 17.9149L7.20589 16.4182C6.72184 16.2075 6.26316 15.9427 5.83861 15.6288L4.47501 16.2604C4.07692 16.4448 3.60513 16.3482 3.31157 16.0221C2.46769 15.0849 1.83018 13.9807 1.44038 12.7811C1.30479 12.3639 1.45703 11.907 1.8158 11.6544L3.04458 10.7894C2.98505 10.2648 2.98505 9.73519 3.04458 9.21062L1.8158 8.34561C1.45703 8.09305 1.30479 7.63613 1.44038 7.21885C1.83018 6.01933 2.46769 4.91515 3.31157 3.97788C3.60513 3.65185 4.07692 3.55522 4.47501 3.73961L5.83861 4.37118C6.26316 4.05734 6.72184 3.79253 7.20589 3.58182L7.34066 2.08512ZM9.26287 3.03889L9.1418 4.38339C9.10589 4.78215 8.8356 5.12106 8.45481 5.24477C7.78845 5.46125 7.17503 5.8154 6.65422 6.28428C6.3567 6.55214 5.92811 6.61675 5.56485 6.4485L4.33997 5.88117C4.05005 6.27958 3.80298 6.7075 3.6029 7.15779L4.70666 7.93479C5.03404 8.16525 5.19241 8.56877 5.10919 8.96038C4.96351 9.64583 4.96351 10.3542 5.10919 11.0396C5.19241 11.4312 5.03404 11.8347 4.70666 12.0652L3.6029 12.8422C3.80298 13.2925 4.05005 13.7204 4.33997 14.1188L5.56485 13.5515C5.92811 13.3833 6.3567 13.4479 6.65422 13.7157C7.17503 14.1846 7.78845 14.5388 8.45481 14.7552C8.8356 14.8789 9.10589 15.2179 9.1418 15.6166L9.26287 16.9611C9.75287 17.013 10.247 17.013 10.737 16.9611L10.8581 15.6166C10.894 15.2179 11.1643 14.8789 11.5451 14.7552C12.2114 14.5388 12.8248 14.1846 13.3456 13.7157C13.6432 13.4479 14.0718 13.3833 14.435 13.5515L15.6599 14.1188C15.9498 13.7204 16.1969 13.2925 16.397 12.8422L15.2932 12.0652C14.9658 11.8347 14.8074 11.4312 14.8907 11.0396C15.0364 10.3542 15.0364 9.64583 14.8907 8.96038C14.8074 8.56877 14.9658 8.16525 15.2932 7.93479L16.397 7.15779C16.1969 6.7075 15.9498 6.27958 15.6599 5.88117L14.435 6.4485C14.0718 6.61675 13.6432 6.55214 13.3456 6.28428C12.8248 5.8154 12.2114 5.46125 11.5451 5.24477C11.1643 5.12106 10.894 4.78215 10.8581 4.38339L10.737 3.03889C10.247 2.98701 9.75287 2.98701 9.26287 3.03889ZM9.99993 9C9.44842 9 8.99993 9.44849 8.99993 10C8.99993 10.5515 9.44842 11 9.99993 11C10.5514 11 10.9999 10.5515 10.9999 10C10.9999 9.44849 10.5514 9 9.99993 9ZM9.99993 7C11.656 7 12.9999 8.34392 12.9999 10C12.9999 11.6561 11.656 13 9.99993 13C8.34385 13 6.99993 11.6561 6.99993 10C6.99993 8.34392 8.34385 7 9.99993 7Z"
    />
</svg>
