<svg width="14" height="14" viewBox="0 0 14 14" fill="none" xmlns="http://www.w3.org/2000/svg">
<path d="M7 4.45455C7.6751 4.45455 8.32254 4.72273 8.79991 5.20009C9.27727 5.67746 9.54545 6.3249 9.54545 7C9.54545 7.6751 9.27727 8.32254 8.79991 8.79991C8.32254 9.27727 7.6751 9.54545 7 9.54545C6.3249 9.54545 5.67746 9.27727 5.20009 8.79991C4.72273 8.32254 4.45455 7.6751 4.45455 7C4.45455 6.3249 4.72273 5.67746 5.20009 5.20009C5.67746 4.72273 6.3249 4.45455 7 4.45455ZM1.30455 7.63636H0V6.36364H1.30455C1.59091 3.71 3.71 1.59091 6.36364 1.30455V0H7.63636V1.30455C10.29 1.59091 12.4091 3.71 12.6955 6.36364H14V7.63636H12.6955C12.4091 10.29 10.29 12.4091 7.63636 12.6955V14H6.36364V12.6955C3.71 12.4091 1.59091 10.29 1.30455 7.63636ZM7 2.54545C5.81858 2.54545 4.68555 3.01477 3.85016 3.85016C3.01477 4.68555 2.54545 5.81858 2.54545 7C2.54545 8.18142 3.01477 9.31445 3.85016 10.1498C4.68555 10.9852 5.81858 11.4545 7 11.4545C8.18142 11.4545 9.31445 10.9852 10.1498 10.1498C10.9852 9.31445 11.4545 8.18142 11.4545 7C11.4545 5.81858 10.9852 4.68555 10.1498 3.85016C9.31445 3.01477 8.18142 2.54545 7 2.54545Z" fill="currentColor"/>
</svg>
