<svg width="24" height="24" viewBox="0 0 24 24" fill="none" xmlns="http://www.w3.org/2000/svg">
    <path d="M9.46588 19.2746L8.02319 20.112L7.03885 20.6834L6.63099 20.9201L7.133 21.785L6.63099 20.9201C6.25309 21.1395 5.76465 20.8707 5.76465 20.4103V10.8122V8.97829V7.05939V5.99669V3.58974C5.76465 3.1293 6.25309 2.86055 6.63099 3.0799L7.02697 3.30974L8.09298 3.9285L10.0883 5.08671L11.9303 6.15589L15.7847 8.39318L17.4276 9.34677L19.3168 10.4434L20.3484 11.0421L21.1203 11.4902C21.5089 11.7157 21.5089 12.2843 21.1203 12.5098L20.9509 12.6081L21.4529 13.473L20.9509 12.6081L20.1782 13.0567L18.9208 13.7865L18.1264 14.2476L16.9562 14.9269L16.1423 15.3993L12.7167 17.3877L11.8561 17.8872L10.3639 18.7533L9.46588 19.2746Z"
          stroke="#080500" stroke-width="2"/>
</svg>
