<svg width="20" height="20" viewBox="0 0 20 20" fill="#080500" xmlns="http://www.w3.org/2000/svg">
    <path d="M8.3711 14.4148C8.42668 14.429 8.48179 14.4482 8.53588 14.4726C9.30316 14.8187 10.1379 15 11 15C14.3137 15 17 12.3137 17 9C17 5.68629 14.3137 3 11 3C7.68629 3 5 5.68629 5 9C5 10.1467 5.32124 11.2435 5.91829 12.1917C5.9328 12.2148 5.94625 12.2382 5.95866 12.2619C6.07427 12.425 6.14221 12.6243 6.14221 12.8395C6.14221 13.7464 5.84945 14.6816 5.27807 15.6521C6.09907 15.4123 6.73481 15.0571 7.19192 14.5952C7.50979 14.274 7.99145 14.2134 8.3711 14.4148ZM4.12745 13.097C3.39401 11.8691 3 10.4625 3 9C3 4.58172 6.58172 1 11 1C15.4183 1 19 4.58172 19 9C19 13.4183 15.4183 17 11 17C9.99548 17 9.01569 16.8143 8.09966 16.4578C6.88877 17.4007 5.1953 17.9033 3.04447 17.999C2.15231 18.0387 1.65946 16.978 2.26515 16.3218C3.42401 15.0662 4.02797 13.9829 4.12745 13.097Z"
    />
</svg>
