<svg width="24" height="24" viewBox="0 0 24 24" fill="#080500" xmlns="http://www.w3.org/2000/svg">
    <path fill-rule="evenodd" clip-rule="evenodd"
          d="M13.1 3H5.0001C4.7801 3 4.5701 3.08 4.3801 3.22C3.9501 3.56 3.8701 4.19 4.2101 4.62L9.0001 10.75V15.87C8.9601 16.16 9.0601 16.47 9.2901 16.7L13.3001 20.71C13.6901 21.1 14.3201 21.1 14.7101 20.71C14.9401 20.5 15.0401 20.18 15.0001 19.88V10.75L16.5374 8.78268C15.8758 8.58059 15.2724 8.24499 14.7588 7.80727L13.0001 10.05V17.58L11.0001 15.58V10.06L7.0401 5H13.1C13.0344 4.67689 13 4.34247 13 4C13 3.65753 13.0344 3.32311 13.1 3Z"
    />
    <circle cx="18" cy="4" r="3"/>
</svg>
