<svg width="24" height="24" viewBox="0 0 24 24" fill="none" xmlns="http://www.w3.org/2000/svg">
<path fill-rule="evenodd" clip-rule="evenodd" d="M4.59571 14.7929H5.61826V18.931C5.61826 20.0737 6.57079 21 7.7458 21H9.87331V16.9204C9.87331 15.7454 10.8258 14.7929 12.0008 14.7929C13.1758 14.7929 14.1284 15.7454 14.1284 16.9204V21H16.2559C17.4309 21 18.3835 20.0737 18.3835 18.931V14.7929H19.4044C20.2856 14.7929 21 14.0981 21 13.2411C21 12.8887 20.8767 12.5469 20.6503 12.2717L13.6621 3.7766C12.9281 2.8843 11.5892 2.73963 10.6717 3.45347C10.5491 3.54887 10.4377 3.65718 10.3396 3.77643L3.34982 12.2716C2.79923 12.9408 2.9107 13.9173 3.59878 14.4527C3.88173 14.6729 4.23333 14.7929 4.59571 14.7929Z" fill="#A6A5A3"/>
</svg>
