<svg width="18" height="18" viewBox="0 0 18 18" fill="#080500" xmlns="http://www.w3.org/2000/svg">
    <path d="M10.5 6.375C10.2016 6.375 9.91548 6.49353 9.7045 6.7045C9.49353 6.91548 9.375 7.20163 9.375 7.5C9.375 7.79837 9.49353 8.08452 9.7045 8.2955C9.91548 8.50647 10.2016 8.625 10.5 8.625C10.7984 8.625 11.0845 8.50647 11.2955 8.2955C11.5065 8.08452 11.625 7.79837 11.625 7.5C11.625 7.20163 11.5065 6.91548 11.2955 6.7045C11.0845 6.49353 10.7984 6.375 10.5 6.375ZM10.5 9.375C10.2016 9.375 9.91548 9.49353 9.7045 9.7045C9.49353 9.91548 9.375 10.2016 9.375 10.5C9.375 10.7984 9.49353 11.0845 9.7045 11.2955C9.91548 11.5065 10.2016 11.625 10.5 11.625C10.7984 11.625 11.0845 11.5065 11.2955 11.2955C11.5065 11.0845 11.625 10.7984 11.625 10.5C11.625 10.2016 11.5065 9.91548 11.2955 9.7045C11.0845 9.49353 10.7984 9.375 10.5 9.375ZM7.5 12.75C7.30109 12.75 7.11032 12.829 6.96967 12.9697C6.82902 13.1103 6.75 13.3011 6.75 13.5C6.75 13.6989 6.82902 13.8897 6.96967 14.0303C7.11032 14.171 7.30109 14.25 7.5 14.25C7.69891 14.25 7.88968 14.171 8.03033 14.0303C8.17098 13.8897 8.25 13.6989 8.25 13.5C8.25 13.3011 8.17098 13.1103 8.03033 12.9697C7.88968 12.829 7.69891 12.75 7.5 12.75ZM7.5 6.375C7.20163 6.375 6.91548 6.49353 6.7045 6.7045C6.49353 6.91548 6.375 7.20163 6.375 7.5C6.375 7.79837 6.49353 8.08452 6.7045 8.2955C6.91548 8.50647 7.20163 8.625 7.5 8.625C7.79837 8.625 8.08452 8.50647 8.2955 8.2955C8.50647 8.08452 8.625 7.79837 8.625 7.5C8.625 7.20163 8.50647 6.91548 8.2955 6.7045C8.08452 6.49353 7.79837 6.375 7.5 6.375ZM10.5 15.375C10.4005 15.375 10.3052 15.4145 10.2348 15.4848C10.1645 15.5552 10.125 15.6505 10.125 15.75C10.125 15.8495 10.1645 15.9448 10.2348 16.0152C10.3052 16.0855 10.4005 16.125 10.5 16.125C10.5995 16.125 10.6948 16.0855 10.7652 16.0152C10.8355 15.9448 10.875 15.8495 10.875 15.75C10.875 15.6505 10.8355 15.5552 10.7652 15.4848C10.6948 15.4145 10.5995 15.375 10.5 15.375ZM10.5 12.75C10.3011 12.75 10.1103 12.829 9.96967 12.9697C9.82902 13.1103 9.75 13.3011 9.75 13.5C9.75 13.6989 9.82902 13.8897 9.96967 14.0303C10.1103 14.171 10.3011 14.25 10.5 14.25C10.6989 14.25 10.8897 14.171 11.0303 14.0303C11.171 13.8897 11.25 13.6989 11.25 13.5C11.25 13.3011 11.171 13.1103 11.0303 12.9697C10.8897 12.829 10.6989 12.75 10.5 12.75ZM15.75 10.125C15.6505 10.125 15.5552 10.1645 15.4848 10.2348C15.4145 10.3052 15.375 10.4005 15.375 10.5C15.375 10.5995 15.4145 10.6948 15.4848 10.7652C15.5552 10.8355 15.6505 10.875 15.75 10.875C15.8495 10.875 15.9448 10.8355 16.0152 10.7652C16.0855 10.6948 16.125 10.5995 16.125 10.5C16.125 10.4005 16.0855 10.3052 16.0152 10.2348C15.9448 10.1645 15.8495 10.125 15.75 10.125ZM13.5 3.75C13.3011 3.75 13.1103 3.82902 12.9697 3.96967C12.829 4.11032 12.75 4.30109 12.75 4.5C12.75 4.69891 12.829 4.88968 12.9697 5.03033C13.1103 5.17098 13.3011 5.25 13.5 5.25C13.6989 5.25 13.8897 5.17098 14.0303 5.03033C14.171 4.88968 14.25 4.69891 14.25 4.5C14.25 4.30109 14.171 4.11032 14.0303 3.96967C13.8897 3.82902 13.6989 3.75 13.5 3.75ZM13.5 6.75C13.3011 6.75 13.1103 6.82902 12.9697 6.96967C12.829 7.11032 12.75 7.30109 12.75 7.5C12.75 7.69891 12.829 7.88968 12.9697 8.03033C13.1103 8.17098 13.3011 8.25 13.5 8.25C13.6989 8.25 13.8897 8.17098 14.0303 8.03033C14.171 7.88968 14.25 7.69891 14.25 7.5C14.25 7.30109 14.171 7.11032 14.0303 6.96967C13.8897 6.82902 13.6989 6.75 13.5 6.75ZM13.5 12.75C13.3011 12.75 13.1103 12.829 12.9697 12.9697C12.829 13.1103 12.75 13.3011 12.75 13.5C12.75 13.6989 12.829 13.8897 12.9697 14.0303C13.1103 14.171 13.3011 14.25 13.5 14.25C13.6989 14.25 13.8897 14.171 14.0303 14.0303C14.171 13.8897 14.25 13.6989 14.25 13.5C14.25 13.3011 14.171 13.1103 14.0303 12.9697C13.8897 12.829 13.6989 12.75 13.5 12.75ZM13.5 9.75C13.3011 9.75 13.1103 9.82902 12.9697 9.96967C12.829 10.1103 12.75 10.3011 12.75 10.5C12.75 10.6989 12.829 10.8897 12.9697 11.0303C13.1103 11.171 13.3011 11.25 13.5 11.25C13.6989 11.25 13.8897 11.171 14.0303 11.0303C14.171 10.8897 14.25 10.6989 14.25 10.5C14.25 10.3011 14.171 10.1103 14.0303 9.96967C13.8897 9.82902 13.6989 9.75 13.5 9.75ZM7.5 9.375C7.20163 9.375 6.91548 9.49353 6.7045 9.7045C6.49353 9.91548 6.375 10.2016 6.375 10.5C6.375 10.7984 6.49353 11.0845 6.7045 11.2955C6.91548 11.5065 7.20163 11.625 7.5 11.625C7.79837 11.625 8.08452 11.5065 8.2955 11.2955C8.50647 11.0845 8.625 10.7984 8.625 10.5C8.625 10.2016 8.50647 9.91548 8.2955 9.7045C8.08452 9.49353 7.79837 9.375 7.5 9.375ZM7.5 5.25C7.69891 5.25 7.88968 5.17098 8.03033 5.03033C8.17098 4.88968 8.25 4.69891 8.25 4.5C8.25 4.30109 8.17098 4.11032 8.03033 3.96967C7.88968 3.82902 7.69891 3.75 7.5 3.75C7.30109 3.75 7.11032 3.82902 6.96967 3.96967C6.82902 4.11032 6.75 4.30109 6.75 4.5C6.75 4.69891 6.82902 4.88968 6.96967 5.03033C7.11032 5.17098 7.30109 5.25 7.5 5.25ZM7.5 2.625C7.59946 2.625 7.69484 2.58549 7.76517 2.51516C7.83549 2.44484 7.875 2.34946 7.875 2.25C7.875 2.15054 7.83549 2.05516 7.76517 1.98484C7.69484 1.91451 7.59946 1.875 7.5 1.875C7.40054 1.875 7.30516 1.91451 7.23483 1.98484C7.16451 2.05516 7.125 2.15054 7.125 2.25C7.125 2.34946 7.16451 2.44484 7.23483 2.51516C7.30516 2.58549 7.40054 2.625 7.5 2.625ZM7.5 15.375C7.40054 15.375 7.30516 15.4145 7.23483 15.4848C7.16451 15.5552 7.125 15.6505 7.125 15.75C7.125 15.8495 7.16451 15.9448 7.23483 16.0152C7.30516 16.0855 7.40054 16.125 7.5 16.125C7.59946 16.125 7.69484 16.0855 7.76517 16.0152C7.83549 15.9448 7.875 15.8495 7.875 15.75C7.875 15.6505 7.83549 15.5552 7.76517 15.4848C7.69484 15.4145 7.59946 15.375 7.5 15.375ZM2.25 10.125C2.15054 10.125 2.05516 10.1645 1.98484 10.2348C1.91451 10.3052 1.875 10.4005 1.875 10.5C1.875 10.5995 1.91451 10.6948 1.98484 10.7652C2.05516 10.8355 2.15054 10.875 2.25 10.875C2.34946 10.875 2.44484 10.8355 2.51516 10.7652C2.58549 10.6948 2.625 10.5995 2.625 10.5C2.625 10.4005 2.58549 10.3052 2.51516 10.2348C2.44484 10.1645 2.34946 10.125 2.25 10.125ZM10.5 2.625C10.5995 2.625 10.6948 2.58549 10.7652 2.51516C10.8355 2.44484 10.875 2.34946 10.875 2.25C10.875 2.15054 10.8355 2.05516 10.7652 1.98484C10.6948 1.91451 10.5995 1.875 10.5 1.875C10.4005 1.875 10.3052 1.91451 10.2348 1.98484C10.1645 2.05516 10.125 2.15054 10.125 2.25C10.125 2.34946 10.1645 2.44484 10.2348 2.51516C10.3052 2.58549 10.4005 2.625 10.5 2.625ZM10.5 5.25C10.6989 5.25 10.8897 5.17098 11.0303 5.03033C11.171 4.88968 11.25 4.69891 11.25 4.5C11.25 4.30109 11.171 4.11032 11.0303 3.96967C10.8897 3.82902 10.6989 3.75 10.5 3.75C10.3011 3.75 10.1103 3.82902 9.96967 3.96967C9.82902 4.11032 9.75 4.30109 9.75 4.5C9.75 4.69891 9.82902 4.88968 9.96967 5.03033C10.1103 5.17098 10.3011 5.25 10.5 5.25ZM15.75 7.875C15.8495 7.875 15.9448 7.83549 16.0152 7.76517C16.0855 7.69484 16.125 7.59946 16.125 7.5C16.125 7.40054 16.0855 7.30516 16.0152 7.23483C15.9448 7.16451 15.8495 7.125 15.75 7.125C15.6505 7.125 15.5552 7.16451 15.4848 7.23483C15.4145 7.30516 15.375 7.40054 15.375 7.5C15.375 7.59946 15.4145 7.69484 15.4848 7.76517C15.5552 7.83549 15.6505 7.875 15.75 7.875ZM4.5 3.75C4.30109 3.75 4.11032 3.82902 3.96967 3.96967C3.82902 4.11032 3.75 4.30109 3.75 4.5C3.75 4.69891 3.82902 4.88968 3.96967 5.03033C4.11032 5.17098 4.30109 5.25 4.5 5.25C4.69891 5.25 4.88968 5.17098 5.03033 5.03033C5.17098 4.88968 5.25 4.69891 5.25 4.5C5.25 4.30109 5.17098 4.11032 5.03033 3.96967C4.88968 3.82902 4.69891 3.75 4.5 3.75ZM2.25 7.125C2.15054 7.125 2.05516 7.16451 1.98484 7.23483C1.91451 7.30516 1.875 7.40054 1.875 7.5C1.875 7.59946 1.91451 7.69484 1.98484 7.76517C2.05516 7.83549 2.15054 7.875 2.25 7.875C2.34946 7.875 2.44484 7.83549 2.51516 7.76517C2.58549 7.69484 2.625 7.59946 2.625 7.5C2.625 7.40054 2.58549 7.30516 2.51516 7.23483C2.44484 7.16451 2.34946 7.125 2.25 7.125ZM4.5 6.75C4.30109 6.75 4.11032 6.82902 3.96967 6.96967C3.82902 7.11032 3.75 7.30109 3.75 7.5C3.75 7.69891 3.82902 7.88968 3.96967 8.03033C4.11032 8.17098 4.30109 8.25 4.5 8.25C4.69891 8.25 4.88968 8.17098 5.03033 8.03033C5.17098 7.88968 5.25 7.69891 5.25 7.5C5.25 7.30109 5.17098 7.11032 5.03033 6.96967C4.88968 6.82902 4.69891 6.75 4.5 6.75ZM4.5 12.75C4.30109 12.75 4.11032 12.829 3.96967 12.9697C3.82902 13.1103 3.75 13.3011 3.75 13.5C3.75 13.6989 3.82902 13.8897 3.96967 14.0303C4.11032 14.171 4.30109 14.25 4.5 14.25C4.69891 14.25 4.88968 14.171 5.03033 14.0303C5.17098 13.8897 5.25 13.6989 5.25 13.5C5.25 13.3011 5.17098 13.1103 5.03033 12.9697C4.88968 12.829 4.69891 12.75 4.5 12.75ZM4.5 9.75C4.30109 9.75 4.11032 9.82902 3.96967 9.96967C3.82902 10.1103 3.75 10.3011 3.75 10.5C3.75 10.6989 3.82902 10.8897 3.96967 11.0303C4.11032 11.171 4.30109 11.25 4.5 11.25C4.69891 11.25 4.88968 11.171 5.03033 11.0303C5.17098 10.8897 5.25 10.6989 5.25 10.5C5.25 10.3011 5.17098 10.1103 5.03033 9.96967C4.88968 9.82902 4.69891 9.75 4.5 9.75Z"
    />
</svg>
