<svg width="18" height="18" viewBox="0 0 18 18" fill="#080500" xmlns="http://www.w3.org/2000/svg">
    <path fill-rule="evenodd" clip-rule="evenodd"
          d="M6.12987 2.0709C7.03982 1.69399 8.01509 1.5 9 1.5C9.98491 1.5 10.9602 1.69399 11.8701 2.0709C12.7801 2.44781 13.6069 3.00026 14.3033 3.6967C14.9997 4.39314 15.5522 5.21993 15.9291 6.12987C16.306 7.03982 16.5 8.01509 16.5 9C16.5 10.9891 15.7098 12.8968 14.3033 14.3033C12.8968 15.7098 10.9891 16.5 9 16.5C8.01509 16.5 7.03982 16.306 6.12987 15.9291C5.21993 15.5522 4.39314 14.9997 3.6967 14.3033C2.29018 12.8968 1.5 10.9891 1.5 9C1.5 7.01088 2.29018 5.10322 3.6967 3.6967C4.39314 3.00026 5.21993 2.44781 6.12987 2.0709ZM12.5303 6.53033L10.0607 9L12.5303 11.4697L11.4697 12.5303L9 10.0607L6.53033 12.5303L5.46967 11.4697L7.93934 9L5.46967 6.53033L6.53033 5.46967L9 7.93934L11.4697 5.46967L12.5303 6.53033Z"
    />
</svg>
