<svg width="24" height="24" viewBox="0 0 24 24" fill="none" xmlns="http://www.w3.org/2000/svg">
<circle cx="12" cy="12" r="12" fill="#D7D7D6"/>
<path d="M11.9998 11.0101L15.0048 8.00503C15.2782 7.73166 15.7214 7.73166 15.9948 8.00503C16.2681 8.2784 16.2681 8.72161 15.9948 8.99498L12.9898 12L15.9948 15.005C16.2681 15.2784 16.2681 15.7216 15.9948 15.995C15.7214 16.2683 15.2782 16.2683 15.0048 15.995L11.9998 12.99L8.99478 15.995C8.72141 16.2683 8.2782 16.2683 8.00483 15.995C7.73146 15.7216 7.73146 15.2784 8.00483 15.005L11.0099 12L8.00483 8.99498C7.73146 8.72161 7.73146 8.2784 8.00483 8.00503C8.2782 7.73166 8.72141 7.73166 8.99478 8.00503L11.9998 11.0101Z" fill="#615F5C"/>
</svg>
