<svg width="34" height="34" viewBox="0 0 34 34" fill="none" xmlns="http://www.w3.org/2000/svg">
    <rect width="34" height="34" rx="2" fill="none"/>
    <path fill-rule="evenodd" clip-rule="evenodd"
          d="M9 10.8C9 9.80589 9.80589 9 10.8 9C11.7941 9 12.6 9.80589 12.6 10.8C12.6 11.7941 11.7941 12.6 10.8 12.6C9.80589 12.6 9 11.7941 9 10.8ZM9 17.4C9 16.4059 9.80589 15.6 10.8 15.6C11.7941 15.6 12.6 16.4059 12.6 17.4C12.6 18.3941 11.7941 19.2 10.8 19.2C9.80589 19.2 9 18.3941 9 17.4ZM10.8 22.2C9.80589 22.2 9 23.0059 9 24C9 24.9941 9.80589 25.8 10.8 25.8C11.7941 25.8 12.6 24.9941 12.6 24C12.6 23.0059 11.7941 22.2 10.8 22.2ZM15.6 10.8C15.6 9.80589 16.4059 9 17.4 9C18.3941 9 19.2 9.80589 19.2 10.8C19.2 11.7941 18.3941 12.6 17.4 12.6C16.4059 12.6 15.6 11.7941 15.6 10.8ZM17.4 15.6C16.4059 15.6 15.6 16.4059 15.6 17.4C15.6 18.3941 16.4059 19.2 17.4 19.2C18.3941 19.2 19.2 18.3941 19.2 17.4C19.2 16.4059 18.3941 15.6 17.4 15.6ZM15.6 24C15.6 23.0059 16.4059 22.2 17.4 22.2C18.3941 22.2 19.2 23.0059 19.2 24C19.2 24.9941 18.3941 25.8 17.4 25.8C16.4059 25.8 15.6 24.9941 15.6 24ZM24 9C23.0059 9 22.2 9.80589 22.2 10.8C22.2 11.7941 23.0059 12.6 24 12.6C24.9941 12.6 25.8 11.7941 25.8 10.8C25.8 9.80589 24.9941 9 24 9ZM22.2 17.4C22.2 16.4059 23.0059 15.6 24 15.6C24.9941 15.6 25.8 16.4059 25.8 17.4C25.8 18.3941 24.9941 19.2 24 19.2C23.0059 19.2 22.2 18.3941 22.2 17.4ZM24 22.2C23.0059 22.2 22.2 23.0059 22.2 24C22.2 24.9941 23.0059 25.8 24 25.8C24.9941 25.8 25.8 24.9941 25.8 24C25.8 23.0059 24.9941 22.2 24 22.2Z"
          fill="#080500"/>
</svg>
