<svg width="26" height="26" viewBox="0 0 26 26" fill="none" xmlns="http://www.w3.org/2000/svg">
    <path d="M11.069 5.71429C8.96814 5.71429 8.26159 5.85073 7.53708 6.23821C6.97089 6.54101 6.54106 6.97084 6.23825 7.53704C5.85078 8.26155 5.71434 8.96809 5.71434 11.0689V14.9311C5.71434 17.0319 5.85078 17.7385 6.23825 18.463C6.54106 19.0292 6.97089 19.459 7.53708 19.7618C8.26159 20.1493 8.96814 20.2857 11.069 20.2857H14.9311C17.032 20.2857 17.7385 20.1493 18.463 19.7618C19.0292 19.459 19.459 19.0292 19.7619 18.463C20.1493 17.7385 20.2858 17.0319 20.2858 14.9311V11.0689C20.2858 8.96809 20.1493 8.26155 19.7619 7.53704C19.459 6.97084 19.0292 6.54101 18.463 6.23821C17.7385 5.85073 17.032 5.71429 14.9311 5.71429H11.069ZM11.069 3.28572H14.9311C17.6375 3.28572 18.6189 3.56751 19.6083 4.09666C20.5977 4.62581 21.3743 5.40231 21.9034 6.39172C22.4325 7.38114 22.7143 8.36255 22.7143 11.0689V14.9311C22.7143 17.6375 22.4325 18.6189 21.9034 19.6083C21.3743 20.5977 20.5977 21.3742 19.6083 21.9034C18.6189 22.4325 17.6375 22.7143 14.9311 22.7143H11.069C8.36259 22.7143 7.38119 22.4325 6.39177 21.9034C5.40235 21.3742 4.62585 20.5977 4.0967 19.6083C3.56756 18.6189 3.28577 17.6375 3.28577 14.9311V11.0689C3.28577 8.36255 3.56756 7.38114 4.0967 6.39172C4.62585 5.40231 5.40235 4.62581 6.39177 4.09666C7.38119 3.56751 8.36259 3.28572 11.069 3.28572ZM17.2501 7.53572C17.9207 7.53572 18.4643 8.07937 18.4643 8.75001C18.4643 9.42064 17.9207 9.96429 17.2501 9.96429C16.5794 9.96429 16.0358 9.42064 16.0358 8.75001C16.0358 8.07937 16.5794 7.53572 17.2501 7.53572ZM13.0001 9.35715C15.0119 9.35715 16.6429 10.9881 16.6429 13C16.6429 15.0119 15.0119 16.6429 13.0001 16.6429C10.9882 16.6429 9.35719 15.0119 9.35719 13C9.35719 10.9881 10.9882 9.35715 13.0001 9.35715Z"
          fill="#080500"/>
</svg>
