<svg width="18" height="18" viewBox="0 0 18 18" fill="#080500" xmlns="http://www.w3.org/2000/svg">
    <path d="M9 6.45455C9.6751 6.45455 10.3225 6.72273 10.7999 7.20009C11.2773 7.67746 11.5455 8.3249 11.5455 9C11.5455 9.6751 11.2773 10.3225 10.7999 10.7999C10.3225 11.2773 9.6751 11.5455 9 11.5455C8.3249 11.5455 7.67746 11.2773 7.20009 10.7999C6.72273 10.3225 6.45455 9.6751 6.45455 9C6.45455 8.3249 6.72273 7.67746 7.20009 7.20009C7.67746 6.72273 8.3249 6.45455 9 6.45455ZM3.30455 9.63636H2V8.36364H3.30455C3.59091 5.71 5.71 3.59091 8.36364 3.30455V2H9.63636V3.30455C12.29 3.59091 14.4091 5.71 14.6955 8.36364H16V9.63636H14.6955C14.4091 12.29 12.29 14.4091 9.63636 14.6955V16H8.36364V14.6955C5.71 14.4091 3.59091 12.29 3.30455 9.63636ZM9 4.54545C7.81858 4.54545 6.68555 5.01477 5.85016 5.85016C5.01477 6.68555 4.54545 7.81858 4.54545 9C4.54545 10.1814 5.01477 11.3144 5.85016 12.1498C6.68555 12.9852 7.81858 13.4545 9 13.4545C10.1814 13.4545 11.3144 12.9852 12.1498 12.1498C12.9852 11.3144 13.4545 10.1814 13.4545 9C13.4545 7.81858 12.9852 6.68555 12.1498 5.85016C11.3144 5.01477 10.1814 4.54545 9 4.54545Z"
    />
</svg>
