<svg width="24" height="24" viewBox="0 0 24 24" fill="none" xmlns="http://www.w3.org/2000/svg">
<path d="M17.4475 3.91375L13.685 9.5C13.6314 9.58045 13.6088 9.67758 13.6213 9.77344C13.6338 9.86929 13.6805 9.95738 13.7529 10.0214C13.8254 10.0854 13.9185 10.1211 14.0152 10.1217C14.1118 10.1224 14.2055 10.088 14.2788 10.025L17.9825 6.815C18.0042 6.79558 18.0311 6.7829 18.0599 6.77851C18.0887 6.77412 18.1181 6.7782 18.1446 6.79026C18.1711 6.80232 18.1936 6.82184 18.2092 6.84643C18.2248 6.87103 18.2329 6.89963 18.2325 6.92875V16.9862C18.2325 17.017 18.223 17.0471 18.2053 17.0723C18.1877 17.0975 18.1626 17.1167 18.1337 17.1272C18.1048 17.1377 18.0733 17.139 18.0436 17.1311C18.0138 17.1231 17.9873 17.1061 17.9675 17.0825L6.7725 3.67875C6.59243 3.46612 6.36822 3.29526 6.11544 3.17804C5.86266 3.06083 5.58738 3.00007 5.30875 3L4.9175 3C4.40895 3 3.92122 3.20202 3.56162 3.56162C3.20202 3.92122 3 4.40895 3 4.9175L3 19.0825C3 19.5911 3.20202 20.0788 3.56162 20.4384C3.92122 20.798 4.40895 21 4.9175 21C5.24539 21.0001 5.56784 20.9161 5.85407 20.7562C6.1403 20.5962 6.38076 20.3656 6.5525 20.0863L10.315 14.5C10.3686 14.4195 10.3912 14.3224 10.3787 14.2266C10.3662 14.1307 10.3195 14.0426 10.2471 13.9786C10.1746 13.9146 10.0815 13.8789 9.98483 13.8783C9.88816 13.8776 9.79453 13.912 9.72125 13.975L6.0175 17.185C5.99579 17.2044 5.9689 17.2171 5.94011 17.2215C5.91132 17.2259 5.88187 17.2218 5.85537 17.2097C5.82886 17.1977 5.80643 17.1782 5.79083 17.1536C5.77523 17.129 5.76712 17.1004 5.7675 17.0712V7.01375C5.76751 6.98296 5.777 6.95292 5.79467 6.92771C5.81235 6.90249 5.83735 6.88333 5.86629 6.87282C5.89523 6.86231 5.92671 6.86096 5.95644 6.86895C5.98618 6.87694 6.01273 6.89389 6.0325 6.9175L17.2262 20.3213C17.4065 20.534 17.6309 20.705 17.8839 20.8222C18.1369 20.9394 18.4124 21.0001 18.6912 21H19.0825C19.5911 21 20.0788 20.798 20.4384 20.4384C20.798 20.0788 21 19.5911 21 19.0825V4.9175C21 4.40895 20.798 3.92122 20.4384 3.56162C20.0788 3.20202 19.5911 3 19.0825 3C18.7546 2.99991 18.4322 3.08386 18.1459 3.24382C17.8597 3.40379 17.6192 3.63443 17.4475 3.91375Z" fill="white"/>
</svg>
