<svg width="18" height="18" viewBox="0 0 18 18" fill="none" xmlns="http://www.w3.org/2000/svg">
<path fill-rule="evenodd" clip-rule="evenodd" d="M6.1725 2.25047L9 0.480469L11.8275 2.25047H14.25V3.75047L15.7725 4.71797C16.2075 4.98047 16.5 5.45297 16.5 6.00047V10.8778C15.8152 10.3288 14.9459 10.0005 14 10.0005C11.7909 10.0005 10 11.7913 10 14.0005C10 14.3458 10.0438 14.6809 10.126 15.0005H3C2.175 15.0005 1.5 14.333 1.5 13.5005V6.00047C1.5 5.45297 1.7925 4.98047 2.2275 4.71797L3.75 3.75047V2.25047H6.1725ZM12.75 7.41047V3.75047H5.25V7.41047L9 9.75047L12.75 7.41047ZM6 5.62547V4.50047H12V5.62547H6ZM3.75 6.47297V5.53547L3 6.00047L3.75 6.47297ZM15 6.00047L14.25 5.53547V6.47297L15 6.00047ZM6 7.50047V6.37547H12V7.50047H6Z" fill="#080500"/>
<path d="M12.1719 14.0003L13.5433 15.3718L16.2862 12.6289" stroke="#00D12E"/>
</svg>
