<svg width="18" height="18" viewBox="0 0 18 18" fill="#080500" xmlns="http://www.w3.org/2000/svg">
    <path fill-rule="evenodd" clip-rule="evenodd"
          d="M7.35296 10.6372C7.36645 10.4474 7.31101 10.2591 7.19683 10.1069C6.972 9.89272 6.793 9.63516 6.67069 9.34977C6.54838 9.06439 6.48531 8.75714 6.48531 8.44665C6.48531 8.13616 6.54838 7.8289 6.67069 7.54352C6.793 7.25813 6.972 7.00057 7.19683 6.78644L9.96385 3.94036C10.4293 3.51816 11.0352 3.28428 11.6636 3.28428C12.292 3.28428 12.8979 3.51816 13.3633 3.94036C13.7855 4.40579 14.0194 5.0117 14.0194 5.6401C14.0194 6.2685 13.7855 6.87441 13.3633 7.33984L12.968 7.73513C13.1938 8.34155 13.3012 8.98565 13.2843 9.63251L14.4701 8.44665C15.1994 7.69441 15.6073 6.68783 15.6073 5.6401C15.6073 4.59237 15.1994 3.58579 14.4701 2.83356C13.7179 2.10425 12.7113 1.69641 11.6636 1.69641C10.6159 1.69641 9.60927 2.10425 8.85704 2.83356L6.09003 5.67963C5.71189 6.03452 5.4105 6.46315 5.20448 6.93906C4.99845 7.41497 4.89216 7.92806 4.89216 8.44665C4.89216 8.96524 4.99845 9.47832 5.20448 9.95423C5.4105 10.4301 5.71189 10.8588 6.09003 11.2137C6.24227 11.3278 6.43059 11.3833 6.62041 11.3698C6.81024 11.3563 6.98883 11.2748 7.12339 11.1402C7.25796 11.0057 7.33947 10.8271 7.35296 10.6372ZM11.5373 8.42005C11.7312 9.04324 11.7611 9.70591 11.6241 10.344C10.9825 10.6851 10.4278 11.169 10.0029 11.7584C9.57796 12.3479 9.29412 13.027 9.17327 13.7435L7.75024 15.1665C6.998 15.8958 5.99142 16.3037 4.94369 16.3037C3.89596 16.3037 2.88938 15.8958 2.13714 15.1665C1.40784 14.4143 1 13.4077 1 12.36C1 11.3123 1.40784 10.3057 2.13714 9.55345L3.32301 8.36759C3.3125 9.03979 3.41952 9.70866 3.63924 10.344L3.24395 10.6603C2.82175 11.1257 2.58787 11.7316 2.58787 12.36C2.58787 12.9884 2.82175 13.5943 3.24395 14.0597C3.70938 14.4819 4.31529 14.7158 4.94369 14.7158C5.57209 14.7158 6.178 14.4819 6.64343 14.0597L9.41045 11.2137C9.63528 10.9995 9.81428 10.742 9.93659 10.4566C10.0589 10.1712 10.122 9.86394 10.122 9.55345C10.122 9.24296 10.0589 8.93571 9.93659 8.65033C9.81428 8.36494 9.63528 8.10737 9.41045 7.89324C9.29626 7.741 9.24083 7.55268 9.25432 7.36285C9.26781 7.17303 9.34932 6.99444 9.48388 6.85988C9.61845 6.72531 9.79704 6.6438 9.98686 6.63031C10.1767 6.61682 10.365 6.67225 10.5173 6.78644C10.9921 7.23419 11.3434 7.79685 11.5373 8.42005ZM16.9999 13.7435V15.3247H14.6282V17.6964H13.047V15.3247H10.6753V13.7435H13.047V11.3718H14.6282V13.7435H16.9999Z"
    />
</svg>
