<svg width="24" height="24" viewBox="0 0 24 24" fill="currentColor" xmlns="http://www.w3.org/2000/svg">
    <path d="M8.5252 20.9769L9.96789 20.1395C10.3543 17.7757 10.2704 15.4098 9.89131 13.1196C9.85539 12.8969 10.0056 12.6874 10.2276 12.6513C10.4496 12.6153 10.6585 12.7659 10.6944 12.9886C11.0521 15.1495 11.155 17.3788 10.8659 19.6182L12.3581 18.752C12.4554 17.7843 12.5241 16.5835 12.4679 15.4216C12.4182 14.3934 12.2721 13.4012 11.9603 12.6472C11.682 11.9727 11.2714 11.5003 10.6781 11.4037C10.5712 11.3865 10.4569 11.38 10.3345 11.3865C9.73379 11.4152 9.31183 11.5928 9.0531 11.8974C8.77642 12.2232 8.66135 12.7168 8.69154 13.3513C8.69467 13.4241 8.71347 13.58 8.73866 13.789L8.74215 13.8179C8.88636 15.0207 9.2221 17.8224 8.5252 20.9769Z"
    />
    <path fill-rule="evenodd" clip-rule="evenodd"
          d="M13.2187 18.2525L16.6444 16.2641C16.6779 12.6781 15.819 9.45758 13.4269 7.96871C13.3567 7.92532 13.2825 7.88193 13.2058 7.83854V7.83936C13.0091 7.72966 12.9389 7.48161 13.0482 7.28432C13.1576 7.08703 13.4049 7.01662 13.6016 7.12632C13.6857 7.17299 13.7697 7.22292 13.8546 7.27532C16.4188 8.87162 17.4092 12.1379 17.4582 15.7917L18.6284 15.1125C18.5604 12.9665 18.2187 11.099 17.5551 9.57324C17.2194 8.80143 16.7988 8.11697 16.2868 7.52832L12.4323 5.29103C11.7813 5.14035 11.0729 5.05129 10.3043 5.02732C10.1002 5.02078 9.89539 5.02241 9.69216 5.03142C7.7856 5.11634 6.06414 5.87839 4.76465 7.05939L4.76465 8.97829C4.96344 8.68995 5.18635 8.42194 5.43097 8.17582C6.4879 7.11159 7.94557 6.4624 9.60565 6.35352C9.83744 6.33797 10.0782 6.33388 10.3271 6.34125L10.3884 6.34288C10.3987 6.34319 10.4091 6.34349 10.4195 6.34379C10.6057 6.34917 10.7906 6.35452 10.9784 6.37235C11.2021 6.39364 11.3661 6.59257 11.3449 6.81688C11.3237 7.04118 11.1253 7.20573 10.9017 7.18445C10.7394 7.16908 10.5705 7.16381 10.3999 7.15848C10.3887 7.15813 10.3775 7.15778 10.3663 7.15743L10.3051 7.15579C10.0904 7.15006 9.87417 7.15416 9.65707 7.16807C8.1994 7.26385 6.92536 7.8279 6.00881 8.75051C5.45143 9.31158 5.02376 10.007 4.76465 10.8122L4.76465 20.4103C4.76465 20.8859 4.96398 21.2921 5.26953 21.5748C6.2142 18.6642 5.98884 15.8488 5.71173 14.3762C5.6701 14.1544 5.8162 13.9415 6.03656 13.8998C6.25774 13.858 6.46994 14.0046 6.51157 14.2256C6.80873 15.8015 7.04868 18.836 5.99891 21.9606C6.36406 22.0442 6.76464 21.9988 7.133 21.785L7.54086 21.5482C8.4492 18.2251 8.08253 15.1659 7.93251 13.9145L7.92947 13.8888C7.90405 13.6741 7.88492 13.5126 7.87864 13.3898C7.83865 12.5482 8.01576 11.863 8.43445 11.3702C8.84253 10.8896 9.45629 10.6121 10.2961 10.572C10.474 10.563 10.6438 10.5728 10.8054 10.599C11.7236 10.748 12.3284 11.4054 12.712 12.3345C13.0629 13.1843 13.227 14.2706 13.28 15.384C13.327 16.3648 13.2888 17.3715 13.2187 18.2525ZM6.07165 12.6219C6.29202 12.6677 6.50749 12.5261 6.55319 12.3051C6.74907 11.3579 7.22571 10.6277 7.85253 10.125C8.54545 9.56997 9.42446 9.28754 10.3116 9.2949C10.4781 9.29654 10.6414 9.30555 10.8005 9.3211C12.2688 9.46682 13.2025 10.2372 13.7656 11.3014C14.3557 12.4156 14.5581 13.8531 14.5467 15.2603C14.5426 15.7163 14.5165 16.1715 14.4724 16.6136C14.4504 16.8379 14.6136 17.0376 14.8373 17.0597C15.0609 17.0818 15.26 16.9181 15.2821 16.6938C15.3278 16.2329 15.3555 15.754 15.3596 15.2669C15.3727 13.7377 15.1458 12.1634 14.4863 10.9183C13.8007 9.62318 12.6663 8.68665 10.8805 8.50901C10.7018 8.491 10.5149 8.48118 10.3182 8.47954C9.2498 8.47135 8.18797 8.81436 7.34569 9.48892C6.57686 10.1054 5.99249 10.9944 5.7558 12.1389C5.71009 12.3599 5.85129 12.576 6.07165 12.6219Z"
    />
    <path d="M4.76465 5.99669C6.12049 4.95592 7.8101 4.29789 9.65625 4.21523C9.8758 4.20541 10.0994 4.20377 10.3263 4.21114C10.4151 4.21391 10.5031 4.21748 10.5904 4.22185L8.59498 3.06364C7.54155 3.22933 6.51444 3.55179 5.564 4.03104L5.56318 4.03022C5.36241 4.13091 5.11837 4.04905 5.01799 3.84766C4.9176 3.64628 4.99921 3.4015 5.19999 3.30081C5.94092 2.92719 6.724 2.64191 7.52898 2.44488L7.133 2.21504C6.0804 1.60406 4.76465 2.36778 4.76465 3.58974L4.76465 5.99669Z"
    />
    <path d="M17.9296 8.48191C18.0624 8.72738 18.1862 8.98237 18.3011 9.24661C18.9602 10.7624 19.32 12.5818 19.4228 14.6514L20.6802 13.9215C20.5424 12.3757 20.2641 10.8973 19.8189 9.57851L17.9296 8.48191Z"
    />
    <path d="M20.8504 10.1773C21.1354 11.2156 21.3328 12.3257 21.4529 13.473L21.6223 13.3747C22.6749 12.7637 22.6749 11.2363 21.6223 10.6253L20.8504 10.1773Z"
    />
</svg>
