<svg width="24" height="24" viewBox="0 0 24 24" fill="#080500" xmlns="http://www.w3.org/2000/svg">
    <path d="M12 0.640015L8.23 3.00001H5V5.00001L2.97 6.29001C2.39 6.64001 2 7.27001 2 8.00001V18C2 19.11 2.9 20 4 20H20C21.11 20 22 19.11 22 18V8.00001C22 7.27001 21.61 6.64001 21.03 6.29001L19 5.00001V3.00001H15.77L12 0.640015ZM7 5.00001H17V9.88001L12 13L7 9.88001V5.00001ZM8 6.00001V7.50001H16V6.00001H8ZM5 7.38001V8.63001L4 8.00001L5 7.38001ZM19 7.38001L20 8.00001L19 8.63001V7.38001ZM8 8.50001V10H16V8.50001H8Z"
    />
</svg>
