<svg width="544" height="176" viewBox="0 0 544 176" fill="none" xmlns="http://www.w3.org/2000/svg">
    <path d="M421.243 166.996L433.997 159.627C437.413 138.826 436.671 118.007 433.32 97.8525C433.002 95.893 434.33 94.0487 436.292 93.7318C438.255 93.4148 440.102 94.7403 440.419 96.6998C443.581 115.716 444.491 135.333 441.935 155.04L455.126 147.418C455.987 138.902 456.593 128.335 456.097 118.11C455.657 109.062 454.366 100.331 451.609 93.6957C449.149 87.7596 445.52 83.6029 440.275 82.7528C439.33 82.6015 438.32 82.5439 437.237 82.6015C431.927 82.8537 428.197 84.4169 425.91 87.0968C423.464 89.964 422.447 94.3081 422.714 99.8912C422.741 100.532 422.908 101.904 423.13 103.743L423.161 103.998C424.436 114.582 427.404 139.237 421.243 166.996Z"
          fill="#F39E00"/>
    <path fill-rule="evenodd" clip-rule="evenodd"
          d="M462.734 143.022L493.017 125.524C493.313 93.9675 485.72 65.6267 464.575 52.5246C463.954 52.1428 463.298 51.761 462.619 51.3792V51.3864C460.881 50.421 460.26 48.2382 461.227 46.502C462.194 44.7658 464.38 44.1463 466.119 45.1116C466.862 45.5223 467.605 45.9617 468.355 46.4228C491.022 60.4703 499.778 89.2136 500.211 121.367L510.556 115.39C509.954 96.505 506.934 80.0716 501.068 66.6445C498.1 59.8526 494.382 53.8294 489.855 48.6492L455.782 28.961C450.027 27.6351 443.765 26.8514 436.97 26.6405C435.167 26.5828 433.356 26.5972 431.559 26.6765C414.705 27.4238 399.488 34.1299 388 44.5227L388 61.409C389.757 58.8716 391.728 56.513 393.89 54.3472C403.234 44.982 416.119 39.2692 430.794 38.311C432.843 38.1741 434.972 38.1381 437.172 38.203L437.714 38.2174C437.805 38.22 437.897 38.2227 437.989 38.2253C439.635 38.2727 441.269 38.3198 442.93 38.4767C444.907 38.664 446.357 40.4146 446.169 42.3885C445.982 44.3624 444.229 45.8104 442.252 45.6231C440.816 45.4879 439.324 45.4415 437.816 45.3947C437.717 45.3916 437.618 45.3885 437.519 45.3854L436.978 45.371C435.08 45.3206 433.168 45.3566 431.249 45.479C418.363 46.3219 407.101 51.2855 398.998 59.4045C394.071 64.3419 390.291 70.4616 388 77.5477L388 162.01C388 166.196 389.762 169.77 392.463 172.258C400.814 146.645 398.822 121.87 396.372 108.911C396.004 106.958 397.296 105.085 399.244 104.718C401.199 104.351 403.075 105.64 403.443 107.585C406.07 121.453 408.191 148.157 398.911 175.653C402.139 176.389 405.68 175.989 408.936 174.108L412.542 172.024C420.571 142.78 417.33 115.86 416.004 104.848L415.977 104.622C415.752 102.732 415.583 101.311 415.528 100.23C415.174 92.8241 416.74 86.7943 420.441 82.4574C424.049 78.2287 429.474 75.7865 436.898 75.4335C438.471 75.3542 439.972 75.4407 441.4 75.6712C449.517 76.9824 454.863 82.7672 458.254 90.9438C461.357 98.4216 462.807 107.981 463.276 117.779C463.691 126.41 463.354 135.27 462.734 143.022ZM399.554 93.4724C401.502 93.8758 403.407 92.6295 403.811 90.6845C405.542 82.3494 409.756 75.9234 415.297 71.5001C421.422 66.6157 429.193 64.1303 437.035 64.1952C438.507 64.2096 439.95 64.2888 441.357 64.4257C454.337 65.708 462.59 72.487 467.569 81.8523C472.785 91.657 474.574 104.307 474.473 116.691C474.437 120.704 474.206 124.709 473.817 128.599C473.622 130.573 475.065 132.331 477.042 132.526C479.019 132.72 480.779 131.279 480.974 129.305C481.378 125.249 481.623 121.035 481.659 116.749C481.775 103.292 479.769 89.4382 473.94 78.4808C467.879 67.084 457.85 58.8426 442.064 57.2793C440.484 57.1208 438.832 57.0343 437.093 57.0199C427.649 56.9479 418.262 59.9664 410.816 65.9025C404.02 71.3272 398.854 79.1508 396.762 89.222C396.358 91.1671 397.606 93.069 399.554 93.4724Z"
          fill="#F39E00"/>
    <path d="M388 35.1709C399.986 26.0121 414.922 20.2215 431.242 19.494C433.183 19.4076 435.159 19.3932 437.165 19.458C437.95 19.4824 438.728 19.5138 439.499 19.5523L421.86 9.36004C412.548 10.8181 403.468 13.6558 395.066 17.8731L395.059 17.8659C393.284 18.752 391.127 18.0316 390.24 16.2594C389.352 14.4872 390.074 12.3332 391.848 11.4471C398.398 8.15931 405.321 5.64885 412.437 3.91493L408.936 1.89232C399.631 -3.48431 388 3.23647 388 13.9897L388 35.1709Z"
          fill="#F39E00"/>
    <path d="M504.378 57.0408C505.552 59.2009 506.646 61.4448 507.662 63.7701C513.489 77.109 516.67 93.1195 517.578 111.332L528.693 104.909C527.475 91.3059 525.015 78.2961 521.079 66.6909L504.378 57.0408Z"
          fill="#F39E00"/>
    <path d="M530.198 71.9601C532.718 81.0975 534.463 90.8666 535.524 100.962L537.021 100.097C546.326 94.7208 546.326 81.2792 537.021 75.9026L530.198 71.9601Z"
          fill="#F39E00"/>
    <path d="M49.3904 134.25H0V125.498L13.9106 113.776V77.518L0 68.2971V59.5451L30.6345 47.0422H40.4813V119.403L54.5482 124.091L49.3904 134.25ZM27.0396 0C31.5202 0 35.1672 1.45868 37.9806 4.37602C40.8981 7.18918 42.3569 10.7317 42.3569 15.0035C42.3569 18.025 41.3149 20.8382 39.2309 23.443C37.147 26.0477 34.542 28.1316 31.416 29.6944C28.29 31.2573 25.2683 32.0387 22.3507 32.0387C17.9743 32.0387 14.3274 30.6321 11.4098 27.819C8.59642 24.9016 7.18973 21.307 7.18973 17.0352C7.18973 14.0137 8.23172 11.2005 10.3157 8.59575C12.3997 5.99097 14.9526 3.90716 17.9743 2.3443C21.1003 0.781437 24.1221 0 27.0396 0Z"
          fill="#F39E00"/>
    <path d="M166.334 134.897H130.854V84.885C130.854 79.988 130.072 76.5497 128.509 74.5701C127.051 72.4863 124.446 71.4444 120.694 71.4444C115.172 71.4444 109.701 73.2156 104.283 76.7581V120.049L118.35 124.738L113.192 134.897H63.8018V126.145L77.7123 114.423V78.9461L63.8018 70.1941V61.442L96.3119 47.6888L102.408 65.818L121.789 50.3457C124.602 49.5122 127.78 49.0954 131.323 49.0954C139.242 49.0954 145.546 51.2834 150.235 55.6594C155.028 59.9313 157.425 65.766 157.425 73.1635V120.049L171.491 124.738L166.334 134.897Z"
          fill="#F39E00"/>
    <path d="M232.782 133.186C229.239 134.02 225.019 134.437 220.122 134.437C210.119 134.437 202.773 132.197 198.084 127.716C193.499 123.132 191.206 116.099 191.206 106.618V63.639H174.326V55.3558L207.93 18.7848H217.777V53.3241H245.911V63.639H217.777V105.524C217.777 112.713 221.841 116.308 229.968 116.308C232.052 116.308 234.084 115.995 236.064 115.37C238.148 114.64 240.753 113.442 243.879 111.775L248.568 120.683L232.782 133.186Z"
          fill="#F39E00"/>
    <path d="M348 59.254L307.988 134.74L271.258 176L261.411 168.342C269.122 159.069 274.54 151.098 277.666 144.43C280.792 137.866 282.563 130.312 282.98 121.769L265.006 78.321L249.845 69.5689V60.8169L284.387 47.6888L290.326 71.2881L307.363 112.86L326.275 75.9767L303.924 60.8169L308.926 50.6583L348 50.502V59.254Z"
          fill="#F39E00"/>
</svg>
